<?xml version="1.0" encoding="utf-8" standalone="no"?>
<!DOCTYPE svg PUBLIC "-//W3C//DTD SVG 1.1//EN"
  "http://www.w3.org/Graphics/SVG/1.1/DTD/svg11.dtd">
<!-- Created with matplotlib (http://matplotlib.org/) -->
<svg height="720pt" version="1.1" viewBox="0 0 1080 720" width="1080pt" xmlns="http://www.w3.org/2000/svg" xmlns:xlink="http://www.w3.org/1999/xlink">
 <defs>
  <style type="text/css">
*{stroke-linecap:butt;stroke-linejoin:round;}
  </style>
 </defs>
 <g id="figure_1">
  <g id="patch_1">
   <path d="
M0 720
L1080 720
L1080 0
L0 0
z
" style="fill:#ffffff;"/>
  </g>
  <g id="axes_1">
   <g id="patch_2">
    <path d="
M135 648
L972 648
L972 72
L135 72
z
" style="fill:#ffffff;"/>
   </g>
   <g id="line2d_1">
    <path clip-path="url(#p891df068c3)" d="
M135 647.965
L155.074 647.975
L202.028 647.786
L202.709 647.705
L203.389 647.666
L204.41 647.634
L207.812 647.572
L208.833 647.65
L214.277 647.642
L226.526 647.62
L228.567 647.507
L229.248 647.502
L230.268 647.329
L230.609 647.359
L231.629 647.09
L232.31 646.56
L232.65 646.752
L233.671 646.599
L234.351 646.581
L235.372 646.437
L235.712 645.61
L236.052 645.737
L236.393 645.408
L236.733 644.627
L237.073 645.039
L237.413 645.125
L237.754 644.695
L238.094 645.042
L238.774 645.2
L239.115 645.7
L241.156 644.38
L241.837 644.585
L242.857 644.404
L243.538 643.639
L244.218 640.228
L244.559 641.129
L244.899 640.368
L245.579 635.822
L245.92 636.102
L246.26 638.146
L246.6 641.972
L246.94 640.369
L247.28 639.837
L247.621 640.068
L247.961 639.981
L248.301 641.006
L248.641 641.548
L248.982 641.051
L249.322 640.796
L251.363 640.796
L251.704 641.232
L252.384 641.026
L252.724 641.069
L253.405 641.665
L254.085 641.647
L254.426 642.298
L254.766 642.69
L255.106 641.918
L255.446 641.921
L255.787 642.111
L256.127 642.084
L256.467 641.87
L256.807 642.154
L257.488 642.26
L258.168 642.318
L258.509 642.356
L258.849 642.586
L259.529 642.302
L260.21 642.4
L262.251 642.265
L262.591 642.45
L263.612 642.507
L263.952 642.613
L264.293 643.042
L264.633 644.19
L264.973 643.577
L265.313 643.968
L265.654 645.305
L265.994 644.75
L266.334 644.791
L266.674 643.89
L267.015 643.894
L267.355 644.107
L267.695 644.108
L268.716 643.413
L269.737 643.544
L270.077 643.207
L271.778 643.536
L272.459 644.635
L273.139 644.268
L273.82 644.383
L274.16 644.626
L274.5 644.622
L274.84 644.445
L275.521 644.635
L276.201 645.176
L276.541 645.043
L276.882 645.313
L277.222 645.931
L277.562 646.036
L277.902 645.587
L278.243 645.499
L278.923 645.688
L279.263 646.009
L279.944 646.037
L280.965 645.485
L281.305 645.691
L281.645 645.767
L282.326 645.75
L282.666 645.807
L283.006 645.996
L285.388 645.933
L286.409 646.052
L287.089 646.351
L287.77 646.313
L288.11 646.383
L288.45 646.293
L289.811 646.537
L290.151 646.947
L291.172 647.034
L291.512 646.943
L291.852 646.7
L292.193 646.696
L292.533 646.953
L294.234 646.527
L294.574 646.655
L299.338 646.767
L299.678 647.087
L300.359 646.947
L301.039 647.157
L302.06 647.056
L304.782 646.868
L305.462 646.741
L305.802 646.718
L306.143 646.85
L311.587 646.552
L311.927 646.375
L313.288 646.379
L313.628 646.262
L314.309 646.325
L315.67 646.057
L316.01 645.833
L316.35 645.854
L316.69 645.992
L317.03 645.707
L317.371 645.142
L317.711 645.245
L318.391 645.073
L318.732 645.397
L319.072 645.383
L319.412 645.161
L319.752 645.202
L320.093 645.363
L320.773 645.119
L321.113 645.251
L321.454 645.696
L322.474 645.33
L322.815 645.457
L323.495 645.385
L323.835 645.412
L324.516 645.803
L324.856 645.823
L325.196 645.685
L325.537 645.786
L326.217 645.744
L326.557 645.5
L327.238 645.548
L328.939 645.696
L329.62 645.567
L331.661 646.242
L332.001 646.186
L332.341 646.263
L333.022 646.206
L333.702 646.18
L334.043 645.937
L336.424 645.975
L337.105 646.102
L338.126 645.947
L340.167 645.988
L340.848 645.787
L342.209 645.828
L342.549 646.069
L343.229 646.019
L344.59 646.128
L347.652 645.963
L350.034 646.01
L351.395 645.959
L353.096 645.886
L353.437 645.799
L355.138 645.889
L357.52 645.913
L358.88 645.922
L371.129 645.706
L372.15 645.55
L372.49 645.326
L373.511 645.404
L374.532 645.252
L375.893 645.406
L377.594 645.248
L378.955 645.322
L379.976 645.218
L380.656 645.111
L382.017 644.846
L382.698 644.865
L383.038 644.503
L383.718 644.252
L384.399 644.495
L384.739 644.361
L385.079 644.54
L385.76 644.462
L386.44 644.338
L387.801 644.257
L388.482 644.071
L388.822 643.668
L389.162 643.487
L391.204 643.449
L391.884 643.264
L392.224 643.218
L392.905 642.985
L393.245 642.549
L393.585 642.446
L393.926 643.234
L394.266 643.223
L394.606 644.709
L394.946 643.845
L395.627 643.965
L396.648 643.67
L398.349 643.566
L398.689 643.82
L399.029 643.9
L399.71 643.668
L400.05 643.727
L400.39 643.474
L400.73 643.4
L401.411 643.459
L402.091 643.404
L404.133 643.116
L404.473 643.108
L405.154 642.827
L405.494 642.947
L406.174 642.965
L407.535 642.952
L409.237 642.898
L409.577 642.717
L410.257 642.713
L410.938 642.855
L411.278 643.145
L411.959 643.106
L412.299 643.013
L414.34 643.125
L417.062 643.207
L417.743 643.816
L418.083 643.779
L418.423 643.598
L418.763 643.639
L419.444 643.392
L419.784 643.651
L420.124 643.693
L421.485 643.516
L424.548 643.393
L424.888 643.166
L426.589 643.157
L426.929 642.889
L427.61 642.894
L427.95 642.865
L428.63 642.981
L429.991 642.832
L430.672 642.783
L431.012 642.483
L433.054 642.473
L434.074 642.363
L435.776 642.528
L436.116 642.405
L438.157 642.507
L438.838 642.478
L442.58 642.41
L444.282 642.142
L444.622 642.192
L445.643 641.94
L445.983 641.623
L446.323 641.539
L447.004 641.541
L447.344 641.088
L448.024 640.8
L448.365 641.049
L449.045 640.644
L449.385 640.669
L450.066 639.967
L450.406 639.895
L450.746 639.603
L451.087 639.566
L451.427 639.924
L451.767 639.529
L452.107 639.594
L452.448 639.525
L452.788 639.286
L453.128 638.887
L453.468 638.677
L453.809 638.27
L454.149 638.138
L454.829 637.644
L455.17 638.043
L455.51 636.801
L456.871 636.912
L457.211 635.897
L458.232 635.556
L458.572 635.739
L458.912 635.702
L459.593 635.205
L459.933 635.286
L460.273 634.267
L460.613 633.806
L460.954 633.909
L461.294 633.806
L461.634 633.126
L461.974 631.407
L462.655 630.72
L463.335 628.725
L463.676 629.074
L464.016 628.087
L464.356 629.778
L464.696 628.696
L465.037 628.593
L465.717 628.663
L466.057 628.498
L466.398 626.77
L467.078 621.467
L467.418 618.85
L467.759 619.256
L468.099 621.525
L468.439 618.583
L468.779 617.719
L469.12 615.703
L469.46 611.416
L469.8 612.543
L470.14 610.766
L470.48 610.07
L470.821 609.725
L471.501 599.46
L471.841 592.457
L472.182 593.642
L472.522 589.444
L472.862 589.317
L473.543 570.857
L473.883 553.371
L474.223 580.114
L474.563 596.613
L474.904 599.863
L475.244 609.737
L475.584 610.971
L475.924 614.104
L476.265 619.877
L476.605 609.708
L476.945 603.15
L477.626 595.907
L477.966 598.958
L478.306 595.584
L478.646 588.97
L478.987 584.558
L479.327 589.696
L479.667 591.675
L480.007 595.337
L480.348 592.686
L480.688 588.754
L481.028 590.718
L481.368 600.118
L482.049 607.639
L482.389 601.55
L482.729 600.283
L483.41 602.907
L483.75 601.426
L484.09 601.591
L484.43 599.575
L484.771 600.422
L485.111 600.76
L485.451 599.46
L485.791 602.167
L486.132 601.007
L486.812 597.189
L487.152 597.307
L487.833 597.797
L488.513 597.065
L488.854 596.037
L489.194 593.239
L489.534 593.697
L489.874 593.074
L490.215 594.609
L490.555 594.926
L490.895 593.589
L491.235 595.008
L491.576 595.002
L491.916 594.802
L492.256 597.6
L492.596 598.325
L493.277 597.847
L493.617 599.052
L493.957 602.331
L494.298 603.61
L494.638 606.677
L494.978 604.245
L495.318 603.154
L495.659 603.246
L496.339 606.857
L496.679 606.939
L497.02 606.898
L497.36 606.055
L497.7 603.833
L498.04 603.462
L498.38 602.212
L499.061 603.483
L499.401 603.607
L499.741 605.997
L500.082 605.487
L500.422 605.211
L500.762 606.143
L501.102 609.054
L501.443 608.915
L501.783 607.882
L502.123 613.19
L502.463 611.936
L502.804 616.365
L503.144 616.038
L503.484 620.706
L503.824 620.494
L504.165 618.169
L504.505 617.324
L504.845 617.462
L505.185 613.228
L505.526 610.469
L505.866 611.603
L506.206 610.4
L506.546 610.819
L506.887 609.68
L507.227 609.843
L507.567 610.748
L507.907 612.852
L508.248 612.709
L508.928 612.834
L509.949 612.017
L510.289 611.214
L510.629 610.711
L510.97 611.343
L511.31 610.107
L511.65 609.614
L511.99 608.375
L512.33 607.715
L512.671 608.331
L513.011 607.993
L513.351 608.231
L513.691 608.256
L514.372 608.037
L514.712 608.124
L515.393 609.589
L515.733 609.619
L516.413 608.879
L516.754 607.72
L517.094 607.696
L517.434 607.867
L517.774 607.544
L518.115 607.036
L518.455 607.332
L519.135 604.795
L519.476 602.148
L520.156 603.752
L520.496 603.283
L520.837 602.004
L521.177 601.825
L521.517 599.679
L522.198 599.648
L522.878 594.736
L523.559 595.598
L523.899 595.505
L524.239 598.392
L524.579 598.409
L524.92 600.142
L525.26 599.017
L525.6 600.029
L525.94 598.621
L526.28 598.029
L526.621 596.386
L526.961 596.259
L527.301 595.951
L527.641 596.949
L528.322 596.546
L528.662 596.173
L529.002 596.035
L529.343 596.903
L529.683 597.435
L530.704 597.714
L531.044 597.584
L531.384 597.22
L532.065 597.189
L532.405 596.675
L532.745 596.497
L533.085 597.354
L533.426 596.368
L533.766 606.934
L534.106 599.938
L534.446 598.096
L534.787 598.16
L535.127 597.936
L536.148 596.225
L536.828 596.361
L537.168 595.945
L538.189 590.959
L538.529 591.462
L539.21 586.452
L539.55 582.249
L539.89 580.911
L540.571 572.353
L540.911 565.459
L541.251 572.648
L541.591 574.716
L541.932 575.629
L542.272 571.602
L542.612 570.706
L542.952 566.458
L543.293 567.957
L543.633 566.444
L543.973 566.327
L544.313 565.366
L544.654 562.574
L545.334 549.549
L545.674 543.623
L546.015 531.441
L546.355 514.793
L546.695 509.704
L547.035 519.675
L547.716 504.271
L548.056 486.194
L548.396 479.017
L548.737 479.657
L549.077 471.57
L549.417 452.039
L549.757 370.542
L550.098 425.077
L550.438 412.388
L550.778 361.701
L551.118 340.465
L551.459 328.444
L551.799 338.862
L552.139 327.631
L552.479 278.043
L552.82 257.798
L553.5 187.037
L553.84 185.24
L554.18 258.409
L554.521 220.794
L554.861 208.32
L555.201 175.99
L555.541 219.28
L555.882 304.858
L556.222 362.275
L557.243 240.687
L557.583 284.601
L557.923 287.692
L558.263 278.45
L558.604 291.088
L558.944 286.161
L559.284 354.854
L559.624 366.648
L559.965 433.14
L560.305 360.638
L560.645 391.745
L560.985 397.455
L561.326 393.813
L561.666 371.04
L562.006 373.322
L562.346 365.202
L562.687 333.172
L563.367 347.463
L563.707 341.456
L564.048 337.468
L564.388 336.345
L564.728 331.021
L565.068 315.546
L565.749 294.59
L566.089 261.217
L566.429 256.572
L566.77 314.503
L567.11 294.193
L567.45 293.803
L567.79 284.023
L568.13 264.999
L568.471 288.714
L568.811 295.012
L569.151 297.534
L569.491 288.118
L570.172 307.246
L570.512 300.854
L570.852 286.486
L571.193 289.626
L571.533 288.293
L572.213 296.497
L572.554 308.521
L572.894 293.41
L573.234 285.88
L573.574 312.879
L573.915 304.893
L574.255 303.422
L574.595 299.995
L574.935 298.99
L575.276 297.045
L575.616 296.486
L575.956 299.559
L576.296 301.572
L576.637 310.272
L576.977 325.596
L577.317 358.532
L577.657 369.5
L577.998 367.432
L578.338 368.338
L578.678 372.573
L579.018 381.237
L579.359 401.798
L579.699 377.853
L580.039 382.452
L580.379 396.76
L580.72 392.3
L581.06 392.411
L581.4 393.856
L581.74 420.803
L582.08 413.88
L582.421 399.19
L582.761 399.258
L583.101 423.639
L583.441 428.005
L583.782 410.57
L584.122 410.73
L584.462 424.213
L584.802 416.063
L585.143 417.475
L585.483 375.995
L585.823 374.977
L586.163 375.722
L586.504 376.982
L586.844 390.517
L587.184 394.873
L587.524 387.491
L587.865 390.516
L588.545 388.228
L588.885 385.441
L589.226 390.155
L589.566 387.292
L589.906 388.505
L590.587 395.534
L590.927 397.516
L591.607 413.169
L591.948 415.781
L592.288 417.043
L592.628 406.791
L593.309 409.753
L593.649 451.272
L593.989 441.282
L594.329 445.092
L594.67 457.974
L595.01 459.361
L595.35 451.042
L595.69 467.994
L596.03 464.058
L596.371 463.318
L596.711 456.757
L597.051 458.454
L597.391 464.413
L597.732 462.666
L598.072 466.89
L598.412 499.54
L598.752 475.177
L599.093 474.928
L599.433 477.278
L599.773 459.716
L600.113 434.006
L600.454 430.287
L600.794 444.59
L601.134 451.242
L601.474 441.647
L602.155 445.128
L602.495 448.692
L602.835 447.662
L603.176 442.18
L603.516 458.903
L603.856 460.331
L604.196 471.228
L604.877 465.221
L605.217 464.558
L605.557 460.279
L606.238 468.231
L606.578 469.414
L606.918 471.199
L607.259 472.323
L607.599 468.222
L607.939 468.887
L608.279 463.583
L608.62 461.742
L608.96 468.394
L609.3 467.618
L609.64 468.036
L609.98 466.252
L610.321 465.196
L610.661 464.909
L611.001 464.355
L611.341 464.993
L611.682 465.197
L612.022 448.115
L612.362 446.745
L612.702 431.565
L613.043 434.452
L613.383 431.739
L613.723 413.447
L614.063 408.62
L614.404 413.637
L614.744 411.653
L615.084 415.335
L615.424 394.367
L616.105 389.201
L616.445 376.957
L616.785 374.1
L617.126 386.009
L617.466 378.078
L617.806 382.396
L618.146 379.457
L618.487 379.074
L618.827 382.488
L619.167 380.651
L619.507 389.66
L619.848 408.629
L620.188 402.202
L620.528 412.79
L620.868 404.446
L621.209 406.055
L621.549 398.122
L621.889 399.137
L622.229 404.325
L622.57 405.865
L622.91 404.833
L623.25 401.605
L624.271 416.725
L624.951 400.787
L625.291 404.437
L625.632 401.718
L625.972 384.948
L626.312 386.5
L626.652 381.666
L626.993 384.403
L627.333 390.052
L627.673 389.487
L628.013 388.098
L628.354 393.741
L628.694 392.824
L629.034 392.688
L629.374 394.925
L629.715 388.314
L630.055 386.958
L630.395 389.797
L630.735 393.581
L631.076 393.179
L631.416 394.888
L632.096 389.534
L632.437 390.528
L632.777 392.35
L633.457 393.405
L633.798 393.767
L634.138 401.14
L634.478 401.172
L634.818 403.672
L635.159 404.868
L635.499 407.441
L635.839 408.465
L636.179 415.802
L636.86 403.165
L637.2 406.373
L637.54 407.105
L637.88 406.589
L638.221 408.091
L638.561 408.123
L639.241 405.038
L639.582 406.041
L639.922 405.483
L640.262 412.125
L640.602 414.222
L640.943 423.949
L641.283 438.767
L641.623 443.678
L641.963 434.127
L642.644 458.466
L643.324 437.379
L643.665 435.637
L644.005 436.55
L644.345 443.43
L644.685 438.758
L645.026 441.615
L645.366 436.744
L646.046 439.399
L646.387 438.82
L646.727 441.791
L647.067 451.307
L647.407 452.927
L647.748 452.441
L648.088 452.762
L648.428 446.776
L648.768 450.308
L649.109 449.594
L649.449 450.727
L649.789 453.745
L650.129 453.988
L650.47 451.532
L650.81 452.022
L651.15 453.055
L651.49 451.713
L651.83 452.689
L652.171 454.07
L652.851 460.835
L653.532 486.743
L653.872 480.621
L654.212 484.841
L654.552 483.887
L654.893 468.873
L655.573 479.809
L655.913 482.639
L656.254 484.105
L656.594 493.221
L656.934 493.824
L657.274 489.078
L657.615 491.109
L657.955 494.954
L658.295 501.302
L658.635 514.083
L658.976 516.491
L659.316 512.862
L659.656 510.545
L659.996 502.853
L660.337 498.333
L660.677 500.426
L661.017 500.214
L661.698 488.211
L662.038 483.961
L662.378 486.784
L662.718 491.624
L663.059 491.484
L663.399 487.97
L663.739 488.946
L664.079 491.916
L664.42 490.679
L664.76 492.029
L665.1 501.588
L665.44 501.873
L665.78 505.599
L666.121 503.366
L666.461 504.427
L666.801 503.219
L667.141 510.838
L667.482 506.558
L667.822 509.431
L668.162 514.127
L668.502 514.803
L668.843 514.602
L669.183 512.935
L669.863 504.726
L670.204 507.67
L670.544 506.455
L670.884 498.525
L671.565 497.008
L671.905 472.221
L672.245 476.371
L672.926 493.661
L673.266 488.138
L673.606 489.246
L673.946 494.793
L674.287 492.794
L674.627 501.474
L674.967 504.468
L675.307 503.16
L675.648 497.101
L675.988 493.617
L676.328 493.419
L676.668 496.384
L677.009 496.124
L677.349 493.365
L677.689 493.623
L678.37 492.215
L678.71 491.025
L679.39 496.119
L679.73 493.288
L680.071 494.118
L680.411 494.02
L681.091 503.478
L681.432 506.215
L681.772 505.18
L682.112 503.613
L682.452 505.04
L682.793 503.529
L683.133 506.018
L683.473 513.841
L684.154 520.15
L684.494 517.575
L684.834 512.404
L685.174 516.655
L685.515 511.953
L685.855 510.564
L686.195 515.568
L686.535 516.914
L686.876 513.398
L687.216 518.331
L687.556 517.661
L687.896 519.453
L688.237 520.51
L688.577 516.468
L688.917 518.842
L689.257 518.568
L689.598 532.861
L689.938 539.533
L690.278 535.701
L690.959 526.679
L691.299 531.462
L691.639 529.161
L691.979 535.241
L692.32 538.82
L692.66 538.113
L693.34 575.062
L693.68 561.409
L694.021 562.742
L694.361 565.869
L694.701 561.628
L695.041 559.963
L695.382 561.402
L695.722 555.025
L696.062 552.276
L696.402 552.151
L696.743 545.972
L697.083 543.288
L697.423 536.112
L697.763 540.181
L698.104 552.051
L698.444 552.382
L698.784 554.81
L699.124 558.756
L699.805 550.269
L700.145 554.624
L700.485 554.717
L700.826 558.814
L701.506 554.471
L701.846 556.306
L702.187 557.414
L702.527 557.452
L702.867 557.695
L703.207 556.724
L703.548 550.991
L703.888 542.068
L704.228 551.59
L704.568 551.906
L704.909 547.777
L705.249 550.815
L705.929 547.704
L706.27 547.506
L706.61 551.096
L706.95 550.045
L707.29 549.767
L707.971 550.864
L708.311 544.11
L708.651 543.691
L708.991 541.546
L709.672 532.204
L710.012 536.123
L710.352 534.913
L710.693 536.005
L711.033 534.491
L711.373 535.073
L711.713 529.296
L712.054 528.475
L712.394 526.287
L712.734 527.095
L713.074 531.038
L713.415 532.24
L714.095 528.531
L714.435 530.967
L714.776 542.935
L715.116 541.135
L715.456 540.684
L715.796 541.186
L716.137 537.821
L716.477 538.583
L716.817 547.018
L717.157 546.733
L717.498 546.111
L717.838 546.549
L718.178 544.216
L718.518 548.427
L718.859 546.438
L719.199 547.863
L719.539 546.56
L719.879 544.214
L720.22 543.685
L720.56 543.859
L720.9 541.051
L721.24 543.284
L721.58 543.992
L721.921 547.463
L722.261 547.916
L722.601 551.224
L722.941 550.855
L723.282 551.053
L723.622 556.085
L723.962 558.196
L724.643 554.15
L724.983 556.567
L725.323 556.316
L725.663 556.79
L726.004 555.713
L726.344 550.979
L726.684 551.757
L727.024 551.083
L727.705 555.078
L728.045 557.973
L728.385 553.989
L728.726 555.15
L729.066 555.027
L729.406 550.668
L729.746 552.498
L730.087 551.354
L730.427 549.208
L730.767 549.764
L731.107 550.675
L731.448 553.352
L732.128 547.861
L732.468 549.059
L732.809 549.409
L733.149 548.494
L733.489 548.85
L733.829 550.986
L734.51 550.364
L734.85 551.015
L735.19 550.862
L735.53 552.192
L735.871 552.572
L736.211 551.625
L736.551 551.189
L736.891 549.044
L737.232 549.655
L737.572 548.769
L737.912 550.291
L738.593 550.415
L738.933 550.297
L739.273 550.448
L739.954 553.372
L740.294 556.124
L740.634 555.122
L740.974 555.163
L741.315 555.687
L741.995 555.149
L742.335 556.091
L742.676 553.929
L743.016 553.646
L743.356 553.803
L743.696 553.364
L744.037 553.287
L744.377 552.239
L744.717 551.786
L745.057 550.364
L745.398 544.774
L745.738 545.485
L746.078 545.606
L746.418 547.798
L746.759 547.093
L747.099 547.607
L747.439 546.472
L747.779 547.617
L748.12 549.168
L748.46 548.261
L748.8 548.17
L749.14 544.852
L749.48 545.938
L750.161 540.006
L750.841 543.353
L751.182 542.84
L751.522 540.885
L751.862 536.497
L752.202 537.534
L752.543 538.989
L752.883 537.06
L753.223 537.69
L753.563 531.203
L753.904 527.992
L754.244 520.466
L754.584 528.323
L754.924 530.255
L755.265 531.227
L755.605 533.694
L755.945 533.422
L756.285 535.065
L756.626 535.89
L756.966 533.453
L757.306 534.816
L757.646 534.192
L757.987 534.599
L758.327 529.519
L758.667 529.453
L759.007 528.012
L759.688 527.128
L760.028 529.193
L760.368 529.801
L761.049 532.785
L761.389 532.121
L761.729 532.603
L762.07 530.947
L762.75 533.519
L763.09 533.199
L763.43 540.946
L763.771 539.202
L764.111 539.481
L764.451 536.537
L764.791 538.707
L765.132 539.656
L765.472 539.025
L766.152 541.986
L766.493 542.269
L766.833 557.895
L767.173 555.266
L767.513 551.443
L768.194 553.477
L768.534 554.363
L768.874 561.957
L769.215 556.781
L769.555 555.272
L769.895 555.733
L770.235 552.967
L770.916 553.944
L771.256 553.364
L771.596 554.463
L771.937 553.842
L772.277 554.702
L772.617 553.336
L773.298 549.488
L773.638 549.249
L773.978 547.798
L774.318 549.96
L774.659 549.837
L774.999 549.223
L775.679 553.236
L776.36 553.403
L776.7 553.866
L777.04 552.223
L777.38 552.254
L777.721 552.862
L778.061 553.017
L778.401 554.768
L778.741 553.156
L779.082 553.39
L779.422 551.609
L779.762 551.381
L780.102 551.64
L780.443 552.199
L780.783 549.528
L781.123 550.647
L781.463 550.802
L781.804 550.257
L782.144 550.326
L782.484 549.632
L782.824 549.797
L783.165 549.016
L783.505 546.615
L783.845 547.913
L784.185 548.15
L784.526 547.479
L784.866 547.064
L785.206 546.161
L785.546 546.959
L785.887 545.17
L786.567 543.163
L787.248 536.419
L787.588 539.835
L787.928 539.212
L788.268 536.824
L788.609 538.014
L788.949 535.1
L789.289 533.847
L789.629 531.705
L789.97 531.536
L790.31 530.277
L791.33 518.982
L791.671 513.872
L792.011 519.457
L792.351 514.252
L793.032 483.138
L793.372 479.832
L793.712 488.567
L794.052 493.735
L794.393 489.682
L794.733 494.337
L795.073 491.639
L795.413 508.965
L795.754 519.396
L796.094 509.408
L796.434 509.228
L796.774 510.767
L797.115 516.372
L797.455 511.574
L797.795 509.855
L798.135 510.183
L798.476 513.745
L798.816 515.525
L799.156 513.391
L799.496 514.556
L799.837 515.003
L800.177 516.277
L800.517 512.647
L800.857 502.641
L801.198 500.632
L801.538 500.847
L801.878 495.005
L802.218 492.93
L802.559 498.763
L802.899 500.12
L803.579 498.453
L803.92 488.011
L804.26 488.177
L804.6 485.13
L804.94 475.967
L805.28 476.008
L805.621 477.153
L805.961 461.253
L806.301 468.66
L806.641 469.63
L806.982 465.392
L807.322 456.479
L807.662 460.646
L808.002 460.394
L808.343 457.161
L808.683 457.827
L809.023 465.945
L809.363 467.893
L809.704 468.823
L810.044 465.803
L810.384 460.863
L810.724 460.672
L811.065 476.345
L811.405 474.162
L811.745 474.68
L812.085 470.009
L812.426 472.672
L813.106 469.25
L813.446 469.61
L813.787 470.937
L814.127 469.649
L814.467 470.159
L814.807 471.306
L815.148 459.451
L815.828 463.21
L816.168 463.283
L816.509 463.522
L816.849 469.899
L817.189 470.246
L817.529 471.197
L817.87 500.393
L818.21 488.504
L818.55 491.572
L818.89 489.253
L819.23 492.585
L819.571 475.718
L819.911 479.337
L820.251 490.933
L820.591 489.11
L820.932 482.355
L821.272 487.27
L821.612 486.955
L821.952 485.638
L822.293 491.911
L822.973 492.917
L823.313 496.95
L823.654 495.258
L823.994 494.588
L824.334 496.21
L824.674 488.114
L825.015 489.461
L825.355 493.548
L825.695 493.597
L826.035 495.318
L826.376 494.405
L826.716 491.674
L827.056 492.595
L827.396 490.371
L827.737 486.645
L828.077 480.656
L828.417 483.64
L829.438 474.526
L829.778 475.063
L830.118 468.404
L830.459 467.389
L830.799 467.765
L831.139 475.208
L831.479 473.405
L831.82 473.753
L832.16 470.237
L832.5 470.206
L832.84 470
L833.18 468.367
L833.521 469.589
L833.861 474.543
L834.201 475.42
L834.882 484.32
L835.562 478.087
L835.902 478.591
L836.243 478.237
L836.923 475.246
L837.263 479.26
L837.944 477.22
L838.284 477.1
L838.624 476.742
L838.965 475.837
L839.305 480.122
L839.645 479.923
L839.985 479.005
L840.326 478.729
L840.666 476.465
L841.006 476.275
L841.346 477.528
L842.027 476.545
L842.367 472.987
L842.707 474.066
L843.048 477.03
L843.388 478.208
L844.409 475.329
L844.749 475.453
L845.089 475.44
L845.429 474.108
L845.77 474.501
L846.11 474.705
L846.45 475.986
L846.79 475.85
L847.811 472.736
L848.151 473.389
L848.491 473.099
L848.832 471.094
L849.172 470.741
L849.512 471.965
L849.852 471.475
L850.873 462.404
L851.213 463.83
L851.554 461.794
L851.894 458.608
L852.234 457.71
L852.574 455.532
L852.915 464.909
L853.255 462.916
L853.595 460.245
L853.935 463.132
L854.276 461.606
L854.616 465.115
L854.956 462.744
L855.296 464.107
L855.637 463.463
L855.977 458.589
L856.317 458.963
L856.657 458.974
L856.998 458.129
L857.338 462.451
L857.678 461.988
L858.018 460.875
L858.359 460.498
L858.699 460.49
L859.039 459.628
L859.379 461.454
L859.72 461.727
L860.06 461.467
L860.4 468.317
L860.74 465.756
L861.08 465.682
L861.421 467.476
L861.761 465.435
L862.101 464.861
L862.782 461.286
L863.122 453.202
L863.462 431.822
L863.802 432.377
L864.143 428.879
L864.483 429.204
L864.823 427.3
L865.163 426.592
L865.504 413.292
L865.844 412.066
L866.184 411.796
L866.524 407.096
L866.865 410.254
L867.205 408.094
L867.545 410.83
L867.885 409.729
L868.226 396.297
L868.566 370.145
L868.906 357.688
L869.246 365.765
L869.587 361.513
L869.927 331.923
L870.267 340.435
L870.948 333.65
L871.288 348.501
L871.968 399.955
L872.309 390.653
L872.649 374.333
L872.989 374.265
L873.329 388.699
L873.67 377.116
L874.01 382.092
L874.35 385.063
L874.69 371.32
L875.03 369.659
L875.371 358.483
L875.711 376.586
L876.051 367.558
L876.391 373.128
L876.732 369.828
L877.072 384.784
L877.412 374.506
L877.752 380.313
L878.433 380.972
L878.773 374.466
L879.113 378.953
L879.794 374.451
L880.134 375
L880.474 368.619
L880.815 370.864
L881.155 370.762
L881.495 373.915
L881.835 374.359
L882.176 380.233
L882.516 378.571
L882.856 376.025
L883.537 380.128
L883.877 378.332
L884.217 378.256
L884.557 377.828
L884.898 378.524
L885.238 390.495
L885.578 398.109
L885.918 420.554
L886.599 410.062
L886.939 411.447
L887.279 405.906
L887.62 404.113
L887.96 405.001
L888.3 407.414
L888.64 404.067
L888.98 406.687
L889.321 406.892
L889.661 407.281
L890.001 412.892
L890.341 414.637
L890.682 410.915
L891.022 412.768
L891.362 412.456
L891.702 411.978
L892.043 409.082
L892.383 409.088
L892.723 407.424
L893.404 410.196
L893.744 411.127
L894.084 410.13
L894.424 414.034
L894.765 412.023
L895.105 412.514
L895.445 411.018
L895.785 412.526
L896.126 412.789
L896.466 411.779
L896.806 401.808
L897.146 397.474
L897.487 398.663
L898.167 395.059
L898.507 390.878
L898.848 392.175
L899.188 392.004
L899.528 398.753
L900.209 398.295
L900.549 397.761
L900.889 398.999
L901.229 398.537
L901.57 398.965
L901.91 397.564
L902.25 397.634
L902.59 401.359
L902.93 402.871
L903.271 403.186
L903.611 400.438
L903.951 400.591
L904.291 401.482
L904.632 398.34
L904.972 399.183
L905.312 399.695
L905.652 399.062
L905.993 397.671
L906.333 395.41
L906.673 396.909
L907.013 396.067
L907.354 397.286
L907.694 396.664
L908.034 396.658
L908.374 394.359
L908.715 394.315
L909.055 395.126
L909.395 393.975
L909.735 384.943
L910.076 386.709
L910.416 386.735
L910.756 385.357
L911.096 385.767
L911.437 384.757
L911.777 385.953
L912.117 386.534
L912.457 389.56
L912.798 389.367
L913.138 388.737
L913.478 379.454
L913.818 380.882
L914.159 381.23
L914.499 379.38
L914.839 370.55
L915.179 365.546
L915.52 364.898
L915.86 354.705
L916.2 361.5
L916.54 361.083
L916.88 347.957
L917.221 342.529
L917.561 365.14
L917.901 358.956
L918.241 358.287
L918.582 354.966
L918.922 358.347
L919.262 356.234
L919.602 351.281
L919.943 354.377
L920.283 353.188
L920.623 358.541
L920.963 358.97
L921.304 357.369
L921.644 355.081
L921.984 342.691
L922.324 345.433
L922.665 339.561
L923.005 339.168
L923.345 348.23
L923.685 344.894
L924.026 340.159
L924.706 345.024
L925.046 344.252
L925.727 348.305
L926.067 346.939
L926.407 346.931
L927.088 338.089
L927.428 330.621
L927.768 333.268
L928.109 332.655
L928.449 339.137
L928.789 335.804
L929.129 333.711
L930.15 329.879
L930.49 331.767
L930.83 327.945
L931.171 329.04
L931.511 328.47
L931.851 328.945
L932.191 326.736
L932.532 323.557
L932.872 323.552
L933.212 322.907
L933.552 319.357
L934.233 294.691
L934.573 270.807
L934.913 280.1
L935.254 279.984
L935.594 276.664
L935.934 264.913
L936.274 245.619
L936.955 252.835
L937.295 249.644
L937.976 229.145
L938.316 223.892
L938.656 183.139
L939.337 279.496
L940.017 272.15
L940.357 277.982
L940.698 275.743
L941.038 328.739
L941.718 308.11
L942.059 311.189
L942.399 309.632
L942.739 306.406
L943.079 275.882
L943.42 284.194
L943.76 278.528
L944.1 281.16
L944.44 269.481
L944.78 267.292
L945.121 272.494
L945.461 283.619
L945.801 280.138
L946.141 271.502
L946.482 270.077
L946.822 269.371
L947.162 271.936
L947.502 269.386
L947.843 249.874
L948.523 233.364
L948.863 229.12
L949.204 222.726
L949.544 230.814
L949.884 226.445
L950.224 214.955
L950.565 214.213
L950.905 241.119
L951.245 239.419
L951.585 232.456
L951.926 236.772
L952.266 237.864
L952.606 232.765
L952.946 232.821
L953.627 214.715
L953.967 212.541
L954.307 214.841
L954.648 202.324
L954.988 185.696
L955.328 186.297
L955.668 163.179
L956.009 162.137
L956.349 174.207
L956.689 162.527
L957.029 156.64
L957.37 158.035
L958.05 129.22
L958.39 116.934
L958.73 126.44
L959.071 122.324
L959.411 121.014
L959.751 140.943
L960.091 174.659
L960.432 157.653
L960.772 188.424
L961.452 142.147
L961.793 136.495
L962.133 135.233
L962.473 129.764
L963.154 207.719
L963.494 248.668
L963.834 229.248
L964.174 219.562
L964.515 189.241
L964.855 221.168
L965.195 224.249
L965.535 262.925
L965.876 251.098
L966.216 250.877
L966.556 219.912
L966.896 218.365
L967.577 221.132
L967.917 203.761
L968.598 195.932
L968.938 175.832
L969.278 177.43
L969.618 181.029
L969.959 158.154
L970.299 157.158
L970.639 160.53
L970.979 150.149
L971.32 148.798
L971.66 144.096
L972 147.495
L972 147.495" style="fill:none;stroke:#0000ff;stroke-linecap:square;stroke-width:2;"/>
   </g>
   <g id="line2d_2">
    <path clip-path="url(#p891df068c3)" d="
M972 153.808
L971.66 162.263
L971.32 162.65
L970.299 157.742
L969.959 164.481
L969.618 167.682
L969.278 162.235
L968.938 166.764
L967.577 169.402
L967.237 169.397
L966.896 172.01
L966.556 172.57
L965.535 172.672
L965.195 172.212
L964.855 172.956
L964.515 175.532
L964.174 176.449
L963.154 177.215
L962.813 177.058
L962.473 183.88
L962.133 182.082
L961.793 183.472
L960.772 182.637
L960.091 176.569
L959.751 174.117
L959.411 170.266
L958.39 170.076
L958.05 163.317
L957.71 163.74
L957.37 160.803
L957.029 160.029
L956.009 160.219
L955.668 162.765
L955.328 163.884
L954.648 168.719
L953.627 168.143
L953.287 169.196
L952.946 171.047
L952.606 170.85
L952.266 173.643
L951.245 172.356
L950.905 170.747
L950.565 170.13
L949.884 177.145
L948.863 183.83
L948.523 183.263
L948.183 187.003
L947.843 185.896
L946.482 192.643
L946.141 190.142
L945.801 189.726
L945.461 183.069
L945.121 182.831
L944.1 184.633
L943.76 183.419
L943.42 180.202
L943.079 181.004
L942.739 181.115
L941.718 186.171
L941.378 183.345
L940.698 186.11
L940.357 187.521
L939.337 189.669
L938.996 188.562
L938.316 191.495
M936.615 197.194
L936.274 198.51
M934.233 203.571
L933.893 201.547
L933.552 201.435
L933.212 199.868
L932.191 201.563
L931.851 202.978
L931.511 198.794
L931.171 200.032
L930.83 199.888
L929.81 194.347
L929.47 194.721
L928.789 198.547
L928.449 202.592
L927.428 194.593
L927.088 197.087
L926.748 190.537
L926.407 187.402
L926.067 186.69
L925.046 187.2
L924.706 186.599
L924.366 185.772
L924.026 178.223
L923.685 177.848
L922.665 177.861
L922.324 175.783
L921.984 175.598
L921.644 177.272
L921.304 181.893
L920.283 180.139
L919.943 168.233
L919.602 166.61
L919.262 170.473
L918.922 170.266
L917.901 165.753
L917.561 165.081
L917.221 165.133
L916.54 169.67
L915.52 168.718
L915.179 170.738
L914.839 169.606
L914.499 167.148
L914.159 169.492
L913.138 168.886
L912.457 171.98
L912.117 176.412
L911.777 178.616
L910.756 180.53
L910.416 177.782
L910.076 179.479
L909.735 182.267
L909.395 183.283
L908.374 185.321
L908.034 186.315
L907.694 181.511
L907.013 166.35
L905.993 162.541
L905.652 164.482
L904.632 158.03
L903.611 156.944
L903.271 158.431
L902.93 158.383
L902.59 164.438
L902.25 163.997
L901.229 166.282
L900.889 167.753
L900.549 163.632
L899.868 162.642
L898.507 158.351
L898.167 154.939
L897.827 156.136
L897.487 158.291
L896.466 161.57
L896.126 164.835
L895.785 164.604
L895.445 161.372
L894.084 166.413
L893.744 166.733
L893.063 160.353
L892.723 162.019
L891.702 158.643
L891.362 156.927
L891.022 157.375
L890.682 157.303
L890.341 155.456
L889.321 151.083
L888.98 148.827
L888.64 151.905
L888.3 151.281
L887.96 151.352
L886.939 149.077
L886.599 144.739
L886.259 148.062
L885.918 147.736
L885.578 150.798
L884.557 153.395
L884.217 150.893
L883.877 151.024
L883.537 152.778
L883.196 155.762
L881.835 154.122
L881.495 155.922
L881.155 151.244
L880.815 151.858
L879.794 155.43
L879.454 157.89
L879.113 149.749
L878.773 150.045
L878.433 143.308
L877.412 143.755
L877.072 144.573
L876.732 139.736
L876.391 149.337
L876.051 148.948
L875.03 153.085
L874.69 159.326
L874.35 159.429
L874.01 160.881
L873.67 153.288
L872.649 158.779
L872.309 191.913
L871.968 188.491
L871.628 182.638
L871.288 183.23
L870.267 176.869
L869.927 164.212
L869.587 177.775
L869.246 175.147
L868.906 180.536
L867.885 183.257
L866.865 198.483
L866.524 197.243
L865.504 197.898
L865.163 201.261
L864.823 200.237
L864.483 201.62
L863.122 199.241
L862.782 197.998
L862.441 197.636
L862.101 191.793
L861.761 189.839
L860.74 188.126
L860.4 190.04
L860.06 183.568
L859.72 184.733
L859.379 181.284
L858.359 186.987
L858.018 186.778
L857.678 188.271
L857.338 191.569
L856.998 191.025
L855.977 183.853
L855.296 188.134
L854.956 187.447
L853.595 185.844
L853.255 192.124
L852.574 197.062
L852.234 195.309
L851.213 193.225
L850.873 192.939
L850.533 193.852
L850.193 194.161
L849.852 198.83
L848.832 201.026
L848.491 197.969
L848.151 193.501
L847.811 193.98
L847.471 196.878
L846.45 200.523
L846.11 198.251
L845.77 206.772
L845.429 201.369
L845.089 207.982
L844.068 208.823
L843.728 201.66
L843.388 199.054
L843.048 197.743
L841.346 197.781
L841.006 199.965
L840.666 189.014
L840.326 192.944
L839.305 191.891
L838.965 187.223
L838.624 191.178
L838.284 190.9
L837.944 187.277
L836.923 180.971
L836.583 176.614
L836.243 180.334
L835.562 171.543
L834.541 171.834
L834.201 177.51
L833.861 177.622
L833.521 178.734
L833.18 181.568
L832.16 186.986
L831.82 186.355
L831.479 180.99
L831.139 191.429
L830.799 195.425
L829.778 191.902
L829.438 199.27
L828.757 201.411
L828.417 201.748
L827.396 195.25
L827.056 197.135
L826.716 212.063
L826.376 212.976
L826.035 207.025
L825.015 222.497
L824.674 223.654
L824.334 225.563
L823.994 223.228
L823.654 222.989
L822.633 226.001
L822.293 228.456
L821.952 226.082
L821.612 225.064
L821.272 227.78
L820.251 231.037
L819.911 231.327
L819.571 232.327
L819.23 237.799
L818.89 236.722
L817.529 237.665
L817.189 235.262
L816.849 236.325
L816.509 232.17
L815.488 231.099
L815.148 228.626
L814.807 230.272
L814.467 235.174
L814.127 237.222
M812.426 248.614
L812.085 245.181
M810.044 245.011
L809.704 244.823
L809.363 240.762
L808.343 244.88
L808.002 249.961
L807.662 243.216
L807.322 249.395
L806.982 248.32
L805.961 246.382
L805.621 246.011
L805.28 242.812
L804.94 242.304
L804.6 238.986
L803.579 242.267
L803.239 246.612
L802.899 237.301
L802.559 235.584
L802.218 235.035
L801.198 236.775
L800.857 233.094
L800.517 232.663
L800.177 231.894
L799.837 234.077
L798.816 231.557
L798.476 232.348
L798.135 236.022
L797.795 231.886
L797.455 231.318
L796.094 233.388
L795.754 232.38
L795.413 229.351
L795.073 230.109
L794.052 231.019
L793.712 229.228
L793.372 226.533
L793.032 225.627
L792.691 225.123
L791.671 222.876
L790.99 209.747
L790.65 213.657
L790.31 213.435
L789.289 214.372
L788.949 218.078
L788.609 224.954
L788.268 221.037
L786.907 220.723
L786.567 219.944
L786.227 225.06
L785.887 226.552
L785.546 226.494
L784.526 230.701
L784.185 230.882
L783.505 227.127
L783.165 229.876
L782.144 232.676
L781.804 236.902
L781.463 238.209
L781.123 233.311
L779.762 225.971
L779.422 226.027
L779.082 231.807
L778.741 233.433
L778.401 233.444
L777.38 236.337
L777.04 241.86
L776.7 240.383
L776.36 245.595
L776.02 246.262
L774.999 247.208
L774.659 241.046
L773.978 235.265
L773.638 235.152
L772.617 234.129
L772.277 230.933
L771.937 231.538
L771.596 231.078
L770.235 232.23
L769.895 239.056
L769.555 242.861
L767.513 225.169
L767.173 228.089
L766.833 233.776
L766.493 232.711
L765.472 235.094
L765.132 234.702
L764.791 236.222
L764.451 235.939
L764.111 236.628
L763.09 234.321
L762.75 237.231
L762.41 237.479
L762.07 238.878
L761.729 238.466
L760.709 240.614
L760.368 238.717
L760.028 241.475
L759.688 239.922
L759.348 240.443
L758.327 242.425
L757.987 237.339
L757.646 236.779
L757.306 230.664
L756.966 229.043
L755.945 218.347
L755.605 216.552
L755.265 217.217
L754.924 216.514
L754.584 218.346
L753.563 221.697
L753.223 215.079
L752.883 215.85
L752.543 213.439
L752.202 213.643
L751.182 215.092
L750.841 215.879
L750.501 213.88
L750.161 217.568
L749.821 213.264
L748.8 217.713
L748.46 216.692
L748.12 216.306
L747.779 213.695
L747.439 218.814
L746.418 211.585
L746.078 214.23
L745.738 217.781
L745.398 217.299
L745.057 215.503
L744.037 214.412
L743.696 216.065
L743.356 216.056
L743.016 217.504
L742.676 217.002
L741.655 215.886
L741.315 219.235
L740.294 196.404
L739.273 202.568
L738.593 198.661
L738.252 200.655
L736.891 198.473
L736.551 202.673
L736.211 199.462
L735.871 200.121
L735.53 204.256
L734.51 206.308
L734.17 205.778
L733.829 208.574
L733.489 212.339
L733.149 209.439
L731.788 214.667
L731.448 214.387
L731.107 205.371
L729.746 218.3
L729.406 212.005
L729.066 198.802
L728.726 194.133
L728.385 193.812
L727.365 197.918
L726.344 187.941
L726.004 189.496
L724.983 188.731
L724.643 185.937
L723.962 187.624
L723.622 182.045
L722.601 179.877
L722.261 189.529
L721.921 190.101
L721.58 189.512
L719.879 194.326
L719.539 190.092
L719.199 192.869
L718.859 197.445
L717.498 195.149
L717.157 199.345
L716.817 198.835
L716.477 201.349
L715.456 196.679
L715.116 197.722
L714.776 203.126
L714.435 201.874
L714.095 199.995
L713.074 197.034
L712.734 202.132
L712.394 200.202
L711.713 204.847
L710.693 202.447
L710.352 199.969
L710.012 202.716
L709.672 202.301
L709.332 203.108
L708.311 201.403
L707.971 205.142
L707.63 211.364
L707.29 214.161
L706.95 210.762
L705.929 207.886
L705.589 210.837
L705.249 210.931
L704.909 211.565
L704.568 204.75
L703.548 203.85
L703.207 206.06
L702.527 199.099
L702.187 198.657
L701.166 197.631
L700.826 194.766
L700.485 190.757
L700.145 193.404
L699.805 186.972
L698.784 189.513
L698.444 187.601
L698.104 179.542
L697.763 181.586
L697.423 180.509
L696.402 175.286
L695.722 191.269
L695.382 190.433
L695.041 197.043
L694.021 192.462
L693.34 216.407
L693 217.118
L692.66 221.875
L691.639 223.912
L691.299 224.014
L690.618 230.517
L690.278 234.296
L689.257 246.907
M688.237 240.591
L687.896 247.812
M685.855 250.484
L685.515 246.923
L684.494 247.395
L684.154 246.288
L683.813 252.847
L683.473 253.153
L683.133 248.096
L682.112 245.598
L681.772 244.126
L681.432 240.648
L681.091 241.704
L680.751 248.265
L679.73 248.484
L679.39 246.469
L679.05 245.312
L678.71 251.63
L678.37 254.563
L677.349 257.801
L677.009 254.473
L676.668 254.23
L676.328 252.472
L675.988 251.504
L674.967 249.499
L674.627 257.351
L674.287 255.663
L673.946 255.635
L673.606 257.539
L672.585 261.966
L672.245 264.729
L671.905 263.452
L671.565 264.987
L671.224 263.444
L670.204 265.865
L669.523 271.547
L669.183 264.699
L668.843 263.151
L667.822 264.826
L667.482 256.132
L666.801 251.148
L666.461 250.216
L665.44 248.45
L665.1 246.775
L664.76 243.962
L664.42 243.861
L664.079 247.137
L663.059 250.127
L662.718 248.153
L662.378 249.016
L662.038 246.917
L661.698 249.383
L660.677 251.062
L660.337 250.989
L659.996 253.275
L659.656 253.892
L659.316 256.37
L658.295 255.02
L657.615 251.688
L657.274 251.216
L656.934 253.118
L655.913 254.794
L655.573 255.751
L655.233 256.129
L654.552 259.071
L653.532 257.615
L653.191 258.587
L652.851 255.619
L652.511 256.387
L652.171 255.842
L651.15 256.383
L650.129 247.06
L649.789 247.824
L648.768 246.498
L648.428 245.839
L648.088 251.908
L647.748 250.683
L647.407 245.029
L646.387 246.639
L646.046 244.412
L645.706 247.484
L645.366 247.108
L643.665 252.706
L643.324 247.037
L642.984 247.687
L642.644 248.957
L641.623 249.754
L641.283 244.768
L640.943 244.777
L640.602 242.686
L640.262 246.177
L639.241 245.889
L638.901 245.529
L638.561 245.475
L638.221 252.739
L637.88 252.36
L636.86 251.953
L636.52 252.969
L636.179 249.888
L635.839 249.47
L635.499 248.574
L634.478 251.589
L634.138 253.142
L633.798 248.513
L633.457 247.648
L633.117 248.837
L632.096 250.072
L631.756 251.811
L631.416 252.413
L631.076 251.756
L630.735 253.517
L629.715 244.342
L629.374 242.457
L629.034 248.487
L628.694 248.088
L628.354 250.702
L627.333 248.547
L626.993 249.722
L626.652 248.322
L626.312 249.131
L625.972 251.932
L624.951 250.481
L624.611 250.788
L624.271 250.765
L623.93 249.448
L623.59 250.229
L622.57 250.415
L621.889 263.195
L621.549 262.912
L621.209 260.769
L620.188 261.242
L619.848 263.387
L619.167 265.512
L618.827 268.455
L617.806 271.325
L617.466 268.534
L617.126 271.645
L616.785 272.98
L616.445 271.013
L615.424 270.197
L615.084 268.336
L614.404 263.181
L612.702 256.845
L612.362 260.319
L611.682 257.449
L610.661 260.457
L610.321 257.152
L609.98 256.36
L609.64 259.41
L609.3 259.867
L608.279 262.64
L607.939 266.014
L607.599 264.891
L607.259 262.332
L605.898 266.565
L605.557 268.756
L604.877 261.709
L604.537 262.564
L603.516 261.283
L602.835 265.817
L602.495 264.761
L600.794 261.728
L600.454 260.593
L600.113 261.495
L599.773 253.489
L598.752 257.321
L598.412 256.185
L598.072 260.238
L597.732 257.505
L597.391 259.142
L596.371 258.447
L596.03 262.792
L595.69 262.164
L595.35 265.212
L595.01 262.658
L593.989 260.668
L593.649 260.576
L593.309 259.061
L592.968 256.227
L592.628 256.536
L591.607 249.863
L591.267 251.54
L590.927 252.191
L590.246 240.854
L589.226 238.552
L588.885 243.85
L588.545 243.297
L588.205 248.573
L587.865 249.298
L586.844 251.979
L586.504 248.177
L586.163 247.242
L585.823 248.731
L585.483 244.759
L584.462 252.379
L584.122 247.499
L583.782 247.415
L583.441 247.576
L583.101 247.421
L581.74 253.318
L581.4 252.994
L581.06 253.034
L580.72 249.509
L579.699 251.24
L579.359 257.855
L579.018 257.066
L578.678 261.476
L578.338 262.559
L576.977 268.217
L576.637 265.959
L576.296 267.225
L575.956 263.761
L574.935 266.319
L574.595 271.592
L574.255 267.321
L573.915 271.05
L573.574 268.541
L572.554 267.059
L572.213 267.761
L571.873 271.464
L571.533 271.653
L571.193 267.017
L570.172 269.097
L569.832 273.439
L569.491 273.616
L569.151 271.499
L568.811 271.892
L567.79 273.735
L567.11 278.703
L566.77 277.228
L566.429 271.868
L565.409 274.62
L565.068 278.769
M564.048 288.764
L563.027 285.808
M561.666 287.872
L560.645 288.553
L560.305 288.011
L559.965 280.076
L559.624 279.247
L559.284 278.833
L558.263 278.742
L557.923 281.38
L557.583 271.824
L557.243 270.156
L556.902 277.19
L555.882 277.01
L555.541 279.873
L555.201 275.45
L554.861 279.323
L554.521 274.264
L553.5 269.052
L553.16 271.321
L552.82 270.945
L552.479 268.792
L552.139 269.209
L551.118 269.145
L550.778 268.972
L550.438 265.792
L550.098 259.315
L549.757 257.907
L548.737 255.259
L548.396 254.882
L548.056 257.5
L547.716 256.16
L547.376 254.285
L546.355 252.242
L546.015 245.425
L545.674 247.355
L545.334 248.297
L544.994 246.128
L543.973 249.841
L543.633 248.05
L543.293 243.131
L542.952 246.001
L542.612 241.853
L541.591 246.157
L541.251 247.023
L540.911 250.414
L540.571 249.573
L540.23 251.354
L539.21 252.06
L538.87 251.117
L538.529 260.718
L538.189 260.484
L537.849 258.766
L536.828 263.917
L536.488 252.823
L536.148 250.885
L535.807 245.562
L535.467 246.61
L534.446 251.336
L534.106 250.292
L533.766 252.599
L533.426 255.704
L533.085 244.63
L532.065 241.123
L531.724 242.023
L531.044 247.021
L530.704 244.262
L529.683 237.53
L529.343 232.924
L529.002 247.05
L528.322 240.45
L527.301 239.053
L526.961 236.541
L526.621 225.941
L526.28 226.565
L525.94 215.18
L524.579 214.572
L524.239 213.931
L523.899 210.133
L523.559 214.151
L522.538 213.635
L522.198 210.547
L521.857 209.314
L521.517 211.685
L520.156 223.982
L519.816 223.74
L519.476 228.947
L519.135 227.753
L518.795 227.231
L517.774 226.301
L517.434 234.16
L517.094 236.292
L516.754 235.048
L516.413 232.669
L515.052 248.795
L514.712 251.593
L514.372 251.735
L514.032 242.584
L513.011 241.953
L512.671 239.368
L512.33 239.739
L511.65 235.096
L510.629 235.952
L510.289 235.42
L509.949 232.085
L509.609 231.891
L507.907 244.542
L507.567 241.723
L507.227 242.691
L506.887 242.863
L505.866 243.975
L505.526 241.788
L505.185 245.418
L504.845 245.703
L504.505 253.145
L503.484 259.281
L503.144 249.204
L502.804 251.786
L502.463 251.726
L502.123 255.565
L501.102 271.793
L500.762 258.245
L500.422 257.858
L500.082 245.693
L499.741 243.627
L498.721 242.966
L498.38 244.225
L498.04 226.327
L497.7 228.013
L497.36 220.951
L496.339 218.464
L495.318 222.563
L494.978 217.053
L493.957 216.033
L493.277 206.577
L492.937 207.116
L492.596 204.234
L491.576 205.507
L491.235 201.749
L490.895 208.331
L490.555 208.847
L489.194 206.378
L488.854 207.98
L488.513 201.649
L488.173 212.623
L487.833 214.138
L486.812 208.594
L486.472 208.162
L486.132 197.251
L485.791 193.438
L485.451 194.528
L484.43 196.049
L484.09 187.769
L483.75 189.225
L483.41 194.65
L482.049 187.049
L481.709 186.062
L481.368 195.189
L481.028 188.598
L480.688 186.683
L479.667 182.796
L478.646 202.973
L478.306 198.414
L477.285 207.083
L476.945 208.456
L476.605 210.484
L476.265 215.643
L475.924 209.273
L474.904 165.27
L474.563 156.409
L474.223 152.739
L473.883 150.739
L473.543 150.419
L472.522 152.25
L472.182 153.461
L471.841 144.074
L471.501 139.772
L469.8 135.398
L469.46 131.499
L469.12 137.072
L468.779 137.188
L467.759 138.429
L467.418 133.475
L467.078 137.288
L466.738 135.465
L466.398 138.598
L465.377 145.178
L465.037 144.663
L464.696 142.97
L464.356 145.073
L464.016 148.388
L462.995 146.785
L462.655 151.855
L462.315 149.932
L461.974 149.263
L461.634 150.159
L460.613 146.472
L460.273 148.685
L459.933 143.772
L459.593 147.405
L459.252 156.711
L458.232 154.642
L457.551 159.215
L457.211 152.995
L456.871 151.254
L455.85 151.238
L455.51 140.345
L455.17 145.625
L454.829 143.062
L454.489 139.638
L453.468 135.481
L453.128 136.627
L452.788 138.507
L452.448 139.375
L452.107 143.109
L451.087 143.982
L450.746 143.19
L450.406 139.099
L449.726 141.624
L448.705 140.667
L448.024 126.424
L447.684 125.445
L447.344 126.295
L446.323 125.868
L445.983 131.904
L445.643 128.367
L445.302 129.549
L444.962 134.523
L443.941 136.492
L443.601 125.289
L443.261 125.319
L442.921 126.87
L442.58 129.539
L441.56 128.394
L441.22 120.604
L440.879 122.348
M439.178 132.47
L438.838 134.722
M436.796 132.192
L436.456 136.195
L436.116 132.165
L435.776 119.079
L435.435 118.492
L434.415 114.937
L434.074 115.468
L433.734 106.294
L433.394 106.647
L433.054 103.214
L432.033 105.539
L431.693 111.591
L431.352 114.83
L431.012 114.303
L430.672 105.692
L429.651 102.169
L428.971 102.537
L428.63 92.2629
L428.29 92.6286
L427.27 96.5993
L426.929 94.9343
L426.589 95.1959
L426.249 91.2487
L425.909 91.159
L424.888 93.9859
L424.548 97.8414
L424.207 90.7258
L423.527 86.6448
L422.506 85.7627
L422.166 93.6819
L421.826 94.8981
L421.485 104.676
L421.145 106.452
L420.124 108.374
L419.784 102.99
L419.444 102.58
L419.104 105.269
L418.763 103.954
L417.743 102.312
L417.402 103.901
L417.062 106.128
L416.722 105.453
L416.382 104.231
L415.361 99.8702
L415.021 100.58
L414.68 99.9924
L414.34 97.3794
L414 96.2076
L412.639 85.8055
L412.299 85.7059
L411.959 83.0818
L411.618 85.5915
L410.598 85.7722
L410.257 80.4606
L409.917 81.4999
L409.577 83.1723
L409.237 79.2942
L408.216 81.3485
L407.876 84.3597
L407.535 89.5433
L407.195 85.3151
L406.855 86.5267
L405.834 82.9744
L405.494 88.7102
L405.154 90.4826
L404.813 90.3419
L404.473 94.0875
L403.452 92.9997
L403.112 95.3741
L402.772 94.1785
L402.432 91.238
L402.091 90.6324
L401.071 90.6554
L400.73 91.777
L400.39 96.4697
L400.05 92.7759
L399.71 94.4434
L398.689 108.387
L398.349 103.679
L397.668 101.569
L396.307 99.6698
L395.967 101.774
L395.627 106.725
L395.287 106.985
L394.946 108.668
L393.926 108.314
L393.585 112.479
L393.245 111.35
L392.905 115.293
L392.565 108.353
L391.544 104.898
L390.863 110.125
L390.523 114.807
L390.183 113.72
L389.162 113.313
L388.822 110.095
L388.482 113.925
L388.141 104.477
L387.801 104.884
L386.78 109.419
L386.44 106.655
L386.1 105.013
L385.76 109.747
L385.42 112.734
L384.059 115.302
L383.718 118.721
L383.038 113.237
L382.017 112.485
L381.677 122.443
L381.337 119.384
L380.996 113.136
L380.656 117.049
L379.635 117.89
L379.295 114.722
L378.955 119.465
L378.615 119.207
L378.274 128.246
L377.254 129.416
L376.913 132.35
L376.573 128.848
L376.233 128.523
L375.893 130.998
L374.872 135.922
L374.532 132.043
L374.191 129.749
L373.851 119.323
L373.511 120.49
L372.49 117.478
L372.15 121.268
L371.81 116.229
L371.47 119.543
L371.129 128.715
L370.109 127.44
L369.768 122.466
L369.428 110.196
L367.727 116.12
L367.387 130.308
L367.046 138.06
L366.706 129.363
L366.366 131.55
L365.345 132.812
L365.005 134.533
L364.665 143.685
L363.984 133.714
L362.963 133.795
L362.623 144.527
L362.283 148.512
L361.943 146.913
L361.602 148.225
L360.582 144.567
L360.241 140.892
L359.901 144.765
L359.561 140.367
L358.2 134.222
L357.86 136.059
L357.52 132.071
L357.179 131.191
L356.839 134.492
L355.818 131.268
L355.478 133.637
L355.138 138.112
L354.798 134.415
L354.457 137.436
L353.437 136.131
L353.096 130.973
L352.756 131.239
L352.416 134.577
L352.076 126.258
L351.055 124.606
L350.034 131.436
L348.333 134.423
L347.993 140.407
L347.652 130.239
L347.312 129.152
L346.291 135.102
L345.951 134.295
L345.271 125.727
L344.93 129.082
L343.91 131.892
L343.57 136.879
L343.229 133.558
L342.889 133.481
L342.549 130.13
L341.528 130.24
L341.188 129.11
L340.848 128.86
L340.507 116.617
L340.167 115.926
L339.146 119.222
L338.806 122.838
L338.466 121.714
L338.126 124.74
L337.785 117.335
L336.765 115.706
L336.424 118.46
L336.084 104.992
L335.744 102.309
L335.404 103.444
L334.383 104.151
L334.043 97.7978
L333.702 102.624
L333.362 104.322
L333.022 109.557
L332.001 109.206
L331.661 107.527
L331.321 103.013
L330.98 109.396
L330.64 112.829
L329.62 113.776
L329.279 107.306
L328.939 106.336
L328.599 110.12
L328.259 106.92
L327.238 103.032
L326.898 99.7834
L326.557 104.055
L326.217 101.559
L325.877 105.308
L324.856 106.374
L324.516 108.406
L324.176 124.069
L323.835 120.044
L323.495 119.155
L322.474 121.776
L322.134 119.709
L321.794 120.051
L321.454 112.282
L321.113 115.166
L320.093 117.412
L319.752 115.48
L319.412 117.611
L318.732 126.202
L317.711 124.855
L317.371 133.714
L317.03 135.502
L316.69 144.004
M314.989 160.803
L314.649 150.728
M312.607 141.478
L312.267 140.772
L311.587 143.152
L310.566 144.88
L310.226 150.123
L309.545 126.662
L309.205 132.121
L307.844 118.747
L307.504 114.222
L307.163 123.19
L306.823 114.995
L305.802 114.831
L305.462 114.018
L305.122 114.503
L304.441 120.756
L303.421 124.609
L303.08 125.377
L302.74 130.753
L302.4 130.822
L302.06 127.328
L301.039 125.392
L300.359 112.68
L300.018 106.087
L299.678 111.393
L298.317 116.265
L297.977 107.707
L297.637 114.276
L297.296 116.566
L296.276 124.435
L295.935 121.587
L294.915 141.328
L293.894 141.926
L293.554 147.409
L293.213 140.557
L292.873 157.131
L292.533 157.504
L291.512 161.063
L291.172 163.474
L290.832 154.721
L290.491 156.791
L290.151 145.04
L289.13 150
L288.79 150.355
L288.45 145.879
L288.11 144.5
L287.77 147.353
L286.749 144.048
L286.409 143.851
L286.068 149.327
L285.728 137.455
L285.388 136.61
L284.367 152.34
L284.027 161.322
L283.687 152.052
L283.346 147.589
L283.006 158.27
L281.985 133.714
L281.305 108.87
L280.965 106.71
L280.624 105.875
L279.604 114.303
L279.263 120.087
L278.923 101.522
L278.583 101.072
L278.243 96.2196
L277.222 93.0528
L276.882 101.96
L276.541 118.125
L276.201 94.0694
L275.861 94.3842
L274.84 105.356
L274.5 123.562
L274.16 131.185
L273.82 127.547
L272.459 136.646
L272.118 154
L271.778 144.384
L271.438 111.516
L271.098 111.832
L270.077 121.025
L269.737 122.956
L269.396 139.923
L269.056 138.573
L268.716 152.759
L267.695 146.462
L267.355 138.024
L267.015 134.981
L266.334 156.711
L265.313 167.667
L264.973 159.976
L264.293 175.939
L263.952 180.128
L262.932 181.806
L262.251 185.192
L261.911 189.286
L261.571 185.2
L260.55 187.986
L260.21 188.336
L259.87 188.085
L259.529 183.312
L259.189 180.329
L258.168 185.381
L257.828 188.303
L257.488 186.768
L257.148 192.409
L256.807 192.598
L255.446 209.162
L255.106 209.265
L254.766 218.954
L254.426 224.241
L253.405 225.928
L253.065 220.085
L252.724 217.168
L252.384 218.012
L252.044 214.98
L251.023 208.685
L250.683 205.418
L250.343 204.735
L250.002 205.751
L249.662 204.147
L248.641 205.797
L248.301 204.69
L247.961 207.903
L247.621 216.206
L247.28 211.565
L246.26 211.466
L245.92 211.972
L245.579 215.165
L245.239 214.548
L244.899 212.149
L243.878 212.178
L243.538 209.483
L243.198 210.544
L242.857 208.849
L241.496 205.233
L241.156 206.323
L240.816 200.843
L240.476 202.559
L240.135 205.237
L238.774 217.843
L238.434 215.198
L238.094 218.411
L237.754 213.573
L236.733 212.647
L236.393 215.733
L236.052 214.251
L235.712 214.124
L235.372 215.523
L234.351 226.446
L233.33 220.546
L231.629 222.435
L230.949 226.294
L229.248 222.834
L228.907 222.863
L228.567 219.254
L228.227 217.543
L226.185 235.888
L225.845 229.964
L224.824 229.277
L224.484 227.936
L224.144 227.479
L223.804 232.046
L223.463 232.811
L222.443 233.885
L222.102 230.597
L221.762 231.042
L221.422 234
L221.082 234.44
L219.721 228.985
L219.38 229.24
L219.04 234.687
L218.7 232.597
L217.339 235.675
L216.999 233.617
L216.659 234.95
L216.318 229.013
L214.957 227.483
L214.617 224.891
L214.277 225.113
L213.937 225.763
L212.916 228.635
L212.576 228.182
L212.235 222.245
L211.895 224.512
L211.555 228.335
L210.534 227.824
L210.194 226.631
L209.854 226.475
L209.513 226.956
L209.173 225.644
L208.152 230.384
L207.812 230.453
L207.472 229.318
L207.132 229.668
L206.791 231.35
L205.771 233.564
L205.43 238.131
L205.09 238.073
L204.75 236.692
L204.41 237.789
L203.389 236.602
L203.049 247.313
L202.709 249.449
L202.368 249.298
L202.028 249.834
L201.007 251.887
L200.667 247.933
L200.327 247.812
L199.987 247.903
L199.646 242.876
L198.626 240.244
L198.285 236.938
L197.945 229.557
L197.605 228.89
L197.265 227.294
L196.244 227.812
L195.563 212.82
L195.223 210.289
L194.883 211.717
L193.862 214.7
L193.182 220.476
L192.841 220.468
M191.14 213.346
L190.8 205.562
M188.759 215.473
L188.418 211.923
L188.078 215
L187.738 216.07
L186.377 223.813
L186.037 220.007
L185.696 219.678
L185.356 216.428
L184.335 219.547
L183.995 214.856
L183.655 217.621
L183.315 210.898
L182.974 209.475
L181.954 215.461
L181.273 213.49
L180.933 210.314
L180.593 220.736
L179.572 227.257
L179.232 224.689
L178.891 226.277
L178.551 226.565
L178.211 239.343
L177.19 243.323
L176.85 239.611
L176.51 241.465
L176.17 239.178
L175.829 234.518
L174.809 232.412
L174.468 227.121
L174.128 229.898
L173.788 228.845
L173.448 237.015
L172.427 240.571
L172.087 249.555
L171.746 253.489
L171.406 251.396
L171.066 246.733
L170.045 249.631
L169.705 253.352
L169.365 252.946
L169.024 253.656
L168.684 255.247
L167.663 257.422
L167.323 252.95
L166.983 251.952
L166.643 249.113
L166.302 244.756
L165.282 246.753
L164.941 246.469
L164.601 245.041
L164.261 246.602
L163.921 249.029
L162.9 252.208
L162.56 251.176
L162.22 248.873
L161.539 253.424
L160.518 254.093
L160.178 253.707
L159.838 252.512
L159.498 253.404
L159.157 251.49
L158.137 251.696
L157.796 249.612
L157.456 251.588
L156.776 245.06
L155.755 246.837
L155.415 248.105
L155.074 246.861
L154.734 243.664
L154.394 249.158
L153.033 242.739
L152.693 242.739
L152.352 242.461
L152.012 248.844
L150.991 251.375
L150.651 246.79
L150.311 248.245
L149.971 245.171
L148.61 248.036
L148.27 249.084
L147.929 245.992
L147.589 251.184
L147.249 251.138
L146.228 251.167
L145.888 254.195
L145.548 258.75
L145.207 256.437
L144.867 255.346
L143.506 259.14
L142.826 273.417
L142.485 274.257
L141.465 275.139
L141.124 275.239
L140.784 273.164
L140.444 277.59
L140.104 275.81
L139.083 278.571
L138.743 282.115
L138.402 282.166
L137.722 271.909
L136.701 265.817
L136.361 265.198
L136.021 265.167
L135.68 270.141
L135.34 273.34
L135.34 273.34" style="fill:none;stroke:#008000;stroke-linecap:square;stroke-width:2;"/>
   </g>
   <g id="matplotlib.axis_1">
    <g id="xtick_1">
     <g id="line2d_3">
      <path clip-path="url(#p891df068c3)" d="
M191.821 648
L191.821 72" style="fill:none;stroke:#000000;stroke-dasharray:1.000000,3.000000;stroke-dashoffset:0.0;stroke-width:0.5;"/>
     </g>
     <g id="line2d_4">
      <defs>
       <path d="
M0 0
L0 -4" id="m93b0483c22" style="stroke:#000000;stroke-width:0.5;"/>
      </defs>
      <g>
       <use style="stroke:#000000;stroke-width:0.5;" x="191.820731707" xlink:href="#m93b0483c22" y="648.0"/>
      </g>
     </g>
     <g id="line2d_5">
      <defs>
       <path d="
M0 0
L0 4" id="m741efc42ff" style="stroke:#000000;stroke-width:0.5;"/>
      </defs>
      <g>
       <use style="stroke:#000000;stroke-width:0.5;" x="191.820731707" xlink:href="#m741efc42ff" y="72.0"/>
      </g>
     </g>
     <g id="text_1">
      <!-- 2011 -->
      <defs>
       <path d="
M19.1875 8.29688
L53.6094 8.29688
L53.6094 0
L7.32812 0
L7.32812 8.29688
Q12.9375 14.1094 22.625 23.8906
Q32.3281 33.6875 34.8125 36.5312
Q39.5469 41.8438 41.4219 45.5312
Q43.3125 49.2188 43.3125 52.7812
Q43.3125 58.5938 39.2344 62.25
Q35.1562 65.9219 28.6094 65.9219
Q23.9688 65.9219 18.8125 64.3125
Q13.6719 62.7031 7.8125 59.4219
L7.8125 69.3906
Q13.7656 71.7812 18.9375 73
Q24.125 74.2188 28.4219 74.2188
Q39.75 74.2188 46.4844 68.5469
Q53.2188 62.8906 53.2188 53.4219
Q53.2188 48.9219 51.5312 44.8906
Q49.8594 40.875 45.4062 35.4062
Q44.1875 33.9844 37.6406 27.2188
Q31.1094 20.4531 19.1875 8.29688" id="BitstreamVeraSans-Roman-32"/>
       <path d="
M31.7812 66.4062
Q24.1719 66.4062 20.3281 58.9062
Q16.5 51.4219 16.5 36.375
Q16.5 21.3906 20.3281 13.8906
Q24.1719 6.39062 31.7812 6.39062
Q39.4531 6.39062 43.2812 13.8906
Q47.125 21.3906 47.125 36.375
Q47.125 51.4219 43.2812 58.9062
Q39.4531 66.4062 31.7812 66.4062
M31.7812 74.2188
Q44.0469 74.2188 50.5156 64.5156
Q56.9844 54.8281 56.9844 36.375
Q56.9844 17.9688 50.5156 8.26562
Q44.0469 -1.42188 31.7812 -1.42188
Q19.5312 -1.42188 13.0625 8.26562
Q6.59375 17.9688 6.59375 36.375
Q6.59375 54.8281 13.0625 64.5156
Q19.5312 74.2188 31.7812 74.2188" id="BitstreamVeraSans-Roman-30"/>
       <path d="
M12.4062 8.29688
L28.5156 8.29688
L28.5156 63.9219
L10.9844 60.4062
L10.9844 69.3906
L28.4219 72.9062
L38.2812 72.9062
L38.2812 8.29688
L54.3906 8.29688
L54.3906 0
L12.4062 0
z
" id="BitstreamVeraSans-Roman-31"/>
      </defs>
      <g transform="translate(177.544481707 661.118125)scale(0.12 -0.12)">
       <use xlink:href="#BitstreamVeraSans-Roman-32"/>
       <use x="63.623046875" xlink:href="#BitstreamVeraSans-Roman-30"/>
       <use x="127.24609375" xlink:href="#BitstreamVeraSans-Roman-31"/>
       <use x="190.869140625" xlink:href="#BitstreamVeraSans-Roman-31"/>
      </g>
     </g>
    </g>
    <g id="xtick_2">
     <g id="line2d_6">
      <path clip-path="url(#p891df068c3)" d="
M316.01 648
L316.01 72" style="fill:none;stroke:#000000;stroke-dasharray:1.000000,3.000000;stroke-dashoffset:0.0;stroke-width:0.5;"/>
     </g>
     <g id="line2d_7">
      <g>
       <use style="stroke:#000000;stroke-width:0.5;" x="316.009756098" xlink:href="#m93b0483c22" y="648.0"/>
      </g>
     </g>
     <g id="line2d_8">
      <g>
       <use style="stroke:#000000;stroke-width:0.5;" x="316.009756098" xlink:href="#m741efc42ff" y="72.0"/>
      </g>
     </g>
     <g id="text_2">
      <!-- 2012 -->
      <g transform="translate(301.780381098 661.118125)scale(0.12 -0.12)">
       <use xlink:href="#BitstreamVeraSans-Roman-32"/>
       <use x="63.623046875" xlink:href="#BitstreamVeraSans-Roman-30"/>
       <use x="127.24609375" xlink:href="#BitstreamVeraSans-Roman-31"/>
       <use x="190.869140625" xlink:href="#BitstreamVeraSans-Roman-32"/>
      </g>
     </g>
    </g>
    <g id="xtick_3">
     <g id="line2d_9">
      <path clip-path="url(#p891df068c3)" d="
M440.539 648
L440.539 72" style="fill:none;stroke:#000000;stroke-dasharray:1.000000,3.000000;stroke-dashoffset:0.0;stroke-width:0.5;"/>
     </g>
     <g id="line2d_10">
      <g>
       <use style="stroke:#000000;stroke-width:0.5;" x="440.53902439" xlink:href="#m93b0483c22" y="648.0"/>
      </g>
     </g>
     <g id="line2d_11">
      <g>
       <use style="stroke:#000000;stroke-width:0.5;" x="440.53902439" xlink:href="#m741efc42ff" y="72.0"/>
      </g>
     </g>
     <g id="text_3">
      <!-- 2013 -->
      <defs>
       <path d="
M40.5781 39.3125
Q47.6562 37.7969 51.625 33
Q55.6094 28.2188 55.6094 21.1875
Q55.6094 10.4062 48.1875 4.48438
Q40.7656 -1.42188 27.0938 -1.42188
Q22.5156 -1.42188 17.6562 -0.515625
Q12.7969 0.390625 7.625 2.20312
L7.625 11.7188
Q11.7188 9.32812 16.5938 8.10938
Q21.4844 6.89062 26.8125 6.89062
Q36.0781 6.89062 40.9375 10.5469
Q45.7969 14.2031 45.7969 21.1875
Q45.7969 27.6406 41.2812 31.2656
Q36.7656 34.9062 28.7188 34.9062
L20.2188 34.9062
L20.2188 43.0156
L29.1094 43.0156
Q36.375 43.0156 40.2344 45.9219
Q44.0938 48.8281 44.0938 54.2969
Q44.0938 59.9062 40.1094 62.9062
Q36.1406 65.9219 28.7188 65.9219
Q24.6562 65.9219 20.0156 65.0312
Q15.375 64.1562 9.8125 62.3125
L9.8125 71.0938
Q15.4375 72.6562 20.3438 73.4375
Q25.25 74.2188 29.5938 74.2188
Q40.8281 74.2188 47.3594 69.1094
Q53.9062 64.0156 53.9062 55.3281
Q53.9062 49.2656 50.4375 45.0938
Q46.9688 40.9219 40.5781 39.3125" id="BitstreamVeraSans-Roman-33"/>
      </defs>
      <g transform="translate(426.18964939 661.118125)scale(0.12 -0.12)">
       <use xlink:href="#BitstreamVeraSans-Roman-32"/>
       <use x="63.623046875" xlink:href="#BitstreamVeraSans-Roman-30"/>
       <use x="127.24609375" xlink:href="#BitstreamVeraSans-Roman-31"/>
       <use x="190.869140625" xlink:href="#BitstreamVeraSans-Roman-33"/>
      </g>
     </g>
    </g>
    <g id="xtick_4">
     <g id="line2d_12">
      <path clip-path="url(#p891df068c3)" d="
M564.728 648
L564.728 72" style="fill:none;stroke:#000000;stroke-dasharray:1.000000,3.000000;stroke-dashoffset:0.0;stroke-width:0.5;"/>
     </g>
     <g id="line2d_13">
      <g>
       <use style="stroke:#000000;stroke-width:0.5;" x="564.72804878" xlink:href="#m93b0483c22" y="648.0"/>
      </g>
     </g>
     <g id="line2d_14">
      <g>
       <use style="stroke:#000000;stroke-width:0.5;" x="564.72804878" xlink:href="#m741efc42ff" y="72.0"/>
      </g>
     </g>
     <g id="text_4">
      <!-- 2014 -->
      <defs>
       <path d="
M37.7969 64.3125
L12.8906 25.3906
L37.7969 25.3906
z

M35.2031 72.9062
L47.6094 72.9062
L47.6094 25.3906
L58.0156 25.3906
L58.0156 17.1875
L47.6094 17.1875
L47.6094 0
L37.7969 0
L37.7969 17.1875
L4.89062 17.1875
L4.89062 26.7031
z
" id="BitstreamVeraSans-Roman-34"/>
      </defs>
      <g transform="translate(550.23429878 661.118125)scale(0.12 -0.12)">
       <use xlink:href="#BitstreamVeraSans-Roman-32"/>
       <use x="63.623046875" xlink:href="#BitstreamVeraSans-Roman-30"/>
       <use x="127.24609375" xlink:href="#BitstreamVeraSans-Roman-31"/>
       <use x="190.869140625" xlink:href="#BitstreamVeraSans-Roman-34"/>
      </g>
     </g>
    </g>
    <g id="xtick_5">
     <g id="line2d_15">
      <path clip-path="url(#p891df068c3)" d="
M688.917 648
L688.917 72" style="fill:none;stroke:#000000;stroke-dasharray:1.000000,3.000000;stroke-dashoffset:0.0;stroke-width:0.5;"/>
     </g>
     <g id="line2d_16">
      <g>
       <use style="stroke:#000000;stroke-width:0.5;" x="688.917073171" xlink:href="#m93b0483c22" y="648.0"/>
      </g>
     </g>
     <g id="line2d_17">
      <g>
       <use style="stroke:#000000;stroke-width:0.5;" x="688.917073171" xlink:href="#m741efc42ff" y="72.0"/>
      </g>
     </g>
     <g id="text_5">
      <!-- 2015 -->
      <defs>
       <path d="
M10.7969 72.9062
L49.5156 72.9062
L49.5156 64.5938
L19.8281 64.5938
L19.8281 46.7344
Q21.9688 47.4688 24.1094 47.8281
Q26.2656 48.1875 28.4219 48.1875
Q40.625 48.1875 47.75 41.5
Q54.8906 34.8125 54.8906 23.3906
Q54.8906 11.625 47.5625 5.09375
Q40.2344 -1.42188 26.9062 -1.42188
Q22.3125 -1.42188 17.5469 -0.640625
Q12.7969 0.140625 7.71875 1.70312
L7.71875 11.625
Q12.1094 9.23438 16.7969 8.0625
Q21.4844 6.89062 26.7031 6.89062
Q35.1562 6.89062 40.0781 11.3281
Q45.0156 15.7656 45.0156 23.3906
Q45.0156 31 40.0781 35.4375
Q35.1562 39.8906 26.7031 39.8906
Q22.75 39.8906 18.8125 39.0156
Q14.8906 38.1406 10.7969 36.2812
z
" id="BitstreamVeraSans-Roman-35"/>
      </defs>
      <g transform="translate(674.610823171 661.118125)scale(0.12 -0.12)">
       <use xlink:href="#BitstreamVeraSans-Roman-32"/>
       <use x="63.623046875" xlink:href="#BitstreamVeraSans-Roman-30"/>
       <use x="127.24609375" xlink:href="#BitstreamVeraSans-Roman-31"/>
       <use x="190.869140625" xlink:href="#BitstreamVeraSans-Roman-35"/>
      </g>
     </g>
    </g>
    <g id="xtick_6">
     <g id="line2d_18">
      <path clip-path="url(#p891df068c3)" d="
M813.106 648
L813.106 72" style="fill:none;stroke:#000000;stroke-dasharray:1.000000,3.000000;stroke-dashoffset:0.0;stroke-width:0.5;"/>
     </g>
     <g id="line2d_19">
      <g>
       <use style="stroke:#000000;stroke-width:0.5;" x="813.106097561" xlink:href="#m93b0483c22" y="648.0"/>
      </g>
     </g>
     <g id="line2d_20">
      <g>
       <use style="stroke:#000000;stroke-width:0.5;" x="813.106097561" xlink:href="#m741efc42ff" y="72.0"/>
      </g>
     </g>
     <g id="text_6">
      <!-- 2016 -->
      <defs>
       <path d="
M33.0156 40.375
Q26.375 40.375 22.4844 35.8281
Q18.6094 31.2969 18.6094 23.3906
Q18.6094 15.5312 22.4844 10.9531
Q26.375 6.39062 33.0156 6.39062
Q39.6562 6.39062 43.5312 10.9531
Q47.4062 15.5312 47.4062 23.3906
Q47.4062 31.2969 43.5312 35.8281
Q39.6562 40.375 33.0156 40.375
M52.5938 71.2969
L52.5938 62.3125
Q48.875 64.0625 45.0938 64.9844
Q41.3125 65.9219 37.5938 65.9219
Q27.8281 65.9219 22.6719 59.3281
Q17.5312 52.7344 16.7969 39.4062
Q19.6719 43.6562 24.0156 45.9219
Q28.375 48.1875 33.5938 48.1875
Q44.5781 48.1875 50.9531 41.5156
Q57.3281 34.8594 57.3281 23.3906
Q57.3281 12.1562 50.6875 5.35938
Q44.0469 -1.42188 33.0156 -1.42188
Q20.3594 -1.42188 13.6719 8.26562
Q6.98438 17.9688 6.98438 36.375
Q6.98438 53.6562 15.1875 63.9375
Q23.3906 74.2188 37.2031 74.2188
Q40.9219 74.2188 44.7031 73.4844
Q48.4844 72.75 52.5938 71.2969" id="BitstreamVeraSans-Roman-36"/>
      </defs>
      <g transform="translate(798.653597561 661.118125)scale(0.12 -0.12)">
       <use xlink:href="#BitstreamVeraSans-Roman-32"/>
       <use x="63.623046875" xlink:href="#BitstreamVeraSans-Roman-30"/>
       <use x="127.24609375" xlink:href="#BitstreamVeraSans-Roman-31"/>
       <use x="190.869140625" xlink:href="#BitstreamVeraSans-Roman-36"/>
      </g>
     </g>
    </g>
    <g id="xtick_7">
     <g id="line2d_21">
      <path clip-path="url(#p891df068c3)" d="
M937.635 648
L937.635 72" style="fill:none;stroke:#000000;stroke-dasharray:1.000000,3.000000;stroke-dashoffset:0.0;stroke-width:0.5;"/>
     </g>
     <g id="line2d_22">
      <g>
       <use style="stroke:#000000;stroke-width:0.5;" x="937.635365854" xlink:href="#m93b0483c22" y="648.0"/>
      </g>
     </g>
     <g id="line2d_23">
      <g>
       <use style="stroke:#000000;stroke-width:0.5;" x="937.635365854" xlink:href="#m741efc42ff" y="72.0"/>
      </g>
     </g>
     <g id="text_7">
      <!-- 2017 -->
      <defs>
       <path d="
M8.20312 72.9062
L55.0781 72.9062
L55.0781 68.7031
L28.6094 0
L18.3125 0
L43.2188 64.5938
L8.20312 64.5938
z
" id="BitstreamVeraSans-Roman-37"/>
      </defs>
      <g transform="translate(923.317865854 661.118125)scale(0.12 -0.12)">
       <use xlink:href="#BitstreamVeraSans-Roman-32"/>
       <use x="63.623046875" xlink:href="#BitstreamVeraSans-Roman-30"/>
       <use x="127.24609375" xlink:href="#BitstreamVeraSans-Roman-31"/>
       <use x="190.869140625" xlink:href="#BitstreamVeraSans-Roman-37"/>
      </g>
     </g>
    </g>
    <g id="text_8">
     <!-- Date (Year) -->
     <defs>
      <path id="BitstreamVeraSans-Roman-20"/>
      <path d="
M41.1094 46.2969
Q39.5938 47.1719 37.8125 47.5781
Q36.0312 48 33.8906 48
Q26.2656 48 22.1875 43.0469
Q18.1094 38.0938 18.1094 28.8125
L18.1094 0
L9.07812 0
L9.07812 54.6875
L18.1094 54.6875
L18.1094 46.1875
Q20.9531 51.1719 25.4844 53.5781
Q30.0312 56 36.5312 56
Q37.4531 56 38.5781 55.875
Q39.7031 55.7656 41.0625 55.5156
z
" id="BitstreamVeraSans-Roman-72"/>
      <path d="
M31 75.875
Q24.4688 64.6562 21.2812 53.6562
Q18.1094 42.6719 18.1094 31.3906
Q18.1094 20.125 21.3125 9.0625
Q24.5156 -2 31 -13.1875
L23.1875 -13.1875
Q15.875 -1.70312 12.2344 9.375
Q8.59375 20.4531 8.59375 31.3906
Q8.59375 42.2812 12.2031 53.3125
Q15.8281 64.3594 23.1875 75.875
z
" id="BitstreamVeraSans-Roman-28"/>
      <path d="
M8.01562 75.875
L15.8281 75.875
Q23.1406 64.3594 26.7812 53.3125
Q30.4219 42.2812 30.4219 31.3906
Q30.4219 20.4531 26.7812 9.375
Q23.1406 -1.70312 15.8281 -13.1875
L8.01562 -13.1875
Q14.5 -2 17.7031 9.0625
Q20.9062 20.125 20.9062 31.3906
Q20.9062 42.6719 17.7031 53.6562
Q14.5 64.6562 8.01562 75.875" id="BitstreamVeraSans-Roman-29"/>
      <path d="
M19.6719 64.7969
L19.6719 8.10938
L31.5938 8.10938
Q46.6875 8.10938 53.6875 14.9375
Q60.6875 21.7812 60.6875 36.5312
Q60.6875 51.1719 53.6875 57.9844
Q46.6875 64.7969 31.5938 64.7969
z

M9.8125 72.9062
L30.0781 72.9062
Q51.2656 72.9062 61.1719 64.0938
Q71.0938 55.2812 71.0938 36.5312
Q71.0938 17.6719 61.125 8.82812
Q51.1719 0 30.0781 0
L9.8125 0
z
" id="BitstreamVeraSans-Roman-44"/>
      <path d="
M56.2031 29.5938
L56.2031 25.2031
L14.8906 25.2031
Q15.4844 15.9219 20.4844 11.0625
Q25.4844 6.20312 34.4219 6.20312
Q39.5938 6.20312 44.4531 7.46875
Q49.3125 8.73438 54.1094 11.2812
L54.1094 2.78125
Q49.2656 0.734375 44.1875 -0.34375
Q39.1094 -1.42188 33.8906 -1.42188
Q20.7969 -1.42188 13.1562 6.1875
Q5.51562 13.8125 5.51562 26.8125
Q5.51562 40.2344 12.7656 48.1094
Q20.0156 56 32.3281 56
Q43.3594 56 49.7812 48.8906
Q56.2031 41.7969 56.2031 29.5938
M47.2188 32.2344
Q47.125 39.5938 43.0938 43.9844
Q39.0625 48.3906 32.4219 48.3906
Q24.9062 48.3906 20.3906 44.1406
Q15.875 39.8906 15.1875 32.1719
z
" id="BitstreamVeraSans-Roman-65"/>
      <path d="
M-0.203125 72.9062
L10.4062 72.9062
L30.6094 42.9219
L50.6875 72.9062
L61.2812 72.9062
L35.5 34.7188
L35.5 0
L25.5938 0
L25.5938 34.7188
z
" id="BitstreamVeraSans-Roman-59"/>
      <path d="
M18.3125 70.2188
L18.3125 54.6875
L36.8125 54.6875
L36.8125 47.7031
L18.3125 47.7031
L18.3125 18.0156
Q18.3125 11.3281 20.1406 9.42188
Q21.9688 7.51562 27.5938 7.51562
L36.8125 7.51562
L36.8125 0
L27.5938 0
Q17.1875 0 13.2344 3.875
Q9.28125 7.76562 9.28125 18.0156
L9.28125 47.7031
L2.6875 47.7031
L2.6875 54.6875
L9.28125 54.6875
L9.28125 70.2188
z
" id="BitstreamVeraSans-Roman-74"/>
      <path d="
M34.2812 27.4844
Q23.3906 27.4844 19.1875 25
Q14.9844 22.5156 14.9844 16.5
Q14.9844 11.7188 18.1406 8.90625
Q21.2969 6.10938 26.7031 6.10938
Q34.1875 6.10938 38.7031 11.4062
Q43.2188 16.7031 43.2188 25.4844
L43.2188 27.4844
z

M52.2031 31.2031
L52.2031 0
L43.2188 0
L43.2188 8.29688
Q40.1406 3.32812 35.5469 0.953125
Q30.9531 -1.42188 24.3125 -1.42188
Q15.9219 -1.42188 10.9531 3.29688
Q6 8.01562 6 15.9219
Q6 25.1406 12.1719 29.8281
Q18.3594 34.5156 30.6094 34.5156
L43.2188 34.5156
L43.2188 35.4062
Q43.2188 41.6094 39.1406 45
Q35.0625 48.3906 27.6875 48.3906
Q23 48.3906 18.5469 47.2656
Q14.1094 46.1406 10.0156 43.8906
L10.0156 52.2031
Q14.9375 54.1094 19.5781 55.0469
Q24.2188 56 28.6094 56
Q40.4844 56 46.3438 49.8438
Q52.2031 43.7031 52.2031 31.2031" id="BitstreamVeraSans-Roman-61"/>
     </defs>
     <g transform="translate(520.3809375 677.731875)scale(0.12 -0.12)">
      <use xlink:href="#BitstreamVeraSans-Roman-44"/>
      <use x="77.001953125" xlink:href="#BitstreamVeraSans-Roman-61"/>
      <use x="138.28125" xlink:href="#BitstreamVeraSans-Roman-74"/>
      <use x="177.490234375" xlink:href="#BitstreamVeraSans-Roman-65"/>
      <use x="239.013671875" xlink:href="#BitstreamVeraSans-Roman-20"/>
      <use x="270.80078125" xlink:href="#BitstreamVeraSans-Roman-28"/>
      <use x="309.814453125" xlink:href="#BitstreamVeraSans-Roman-59"/>
      <use x="357.6484375" xlink:href="#BitstreamVeraSans-Roman-65"/>
      <use x="419.171875" xlink:href="#BitstreamVeraSans-Roman-61"/>
      <use x="480.451171875" xlink:href="#BitstreamVeraSans-Roman-72"/>
      <use x="521.564453125" xlink:href="#BitstreamVeraSans-Roman-29"/>
     </g>
    </g>
   </g>
   <g id="matplotlib.axis_2">
    <g id="ytick_1">
     <g id="line2d_24">
      <path clip-path="url(#p891df068c3)" d="
M135 648
L972 648" style="fill:none;stroke:#000000;stroke-dasharray:1.000000,3.000000;stroke-dashoffset:0.0;stroke-width:0.5;"/>
     </g>
     <g id="line2d_25">
      <defs>
       <path d="
M0 0
L4 0" id="m728421d6d4" style="stroke:#000000;stroke-width:0.5;"/>
      </defs>
      <g>
       <use style="stroke:#000000;stroke-width:0.5;" x="135.0" xlink:href="#m728421d6d4" y="648.0"/>
      </g>
     </g>
     <g id="line2d_26">
      <defs>
       <path d="
M0 0
L-4 0" id="mcb0005524f" style="stroke:#000000;stroke-width:0.5;"/>
      </defs>
      <g>
       <use style="stroke:#000000;stroke-width:0.5;" x="972.0" xlink:href="#mcb0005524f" y="648.0"/>
      </g>
     </g>
     <g id="text_9">
      <!-- 0 -->
      <g transform="translate(124.953125 651.31125)scale(0.12 -0.12)">
       <use xlink:href="#BitstreamVeraSans-Roman-30"/>
      </g>
     </g>
    </g>
    <g id="ytick_2">
     <g id="line2d_27">
      <path clip-path="url(#p891df068c3)" d="
M135 565.714
L972 565.714" style="fill:none;stroke:#000000;stroke-dasharray:1.000000,3.000000;stroke-dashoffset:0.0;stroke-width:0.5;"/>
     </g>
     <g id="line2d_28">
      <g>
       <use style="stroke:#000000;stroke-width:0.5;" x="135.0" xlink:href="#m728421d6d4" y="565.714285714"/>
      </g>
     </g>
     <g id="line2d_29">
      <g>
       <use style="stroke:#000000;stroke-width:0.5;" x="972.0" xlink:href="#mcb0005524f" y="565.714285714"/>
      </g>
     </g>
     <g id="text_10">
      <!-- 200 -->
      <g transform="translate(109.77125 569.025535714)scale(0.12 -0.12)">
       <use xlink:href="#BitstreamVeraSans-Roman-32"/>
       <use x="63.623046875" xlink:href="#BitstreamVeraSans-Roman-30"/>
       <use x="127.24609375" xlink:href="#BitstreamVeraSans-Roman-30"/>
      </g>
     </g>
    </g>
    <g id="ytick_3">
     <g id="line2d_30">
      <path clip-path="url(#p891df068c3)" d="
M135 483.429
L972 483.429" style="fill:none;stroke:#000000;stroke-dasharray:1.000000,3.000000;stroke-dashoffset:0.0;stroke-width:0.5;"/>
     </g>
     <g id="line2d_31">
      <g>
       <use style="stroke:#000000;stroke-width:0.5;" x="135.0" xlink:href="#m728421d6d4" y="483.428571429"/>
      </g>
     </g>
     <g id="line2d_32">
      <g>
       <use style="stroke:#000000;stroke-width:0.5;" x="972.0" xlink:href="#mcb0005524f" y="483.428571429"/>
      </g>
     </g>
     <g id="text_11">
      <!-- 400 -->
      <g transform="translate(109.47875 486.739821429)scale(0.12 -0.12)">
       <use xlink:href="#BitstreamVeraSans-Roman-34"/>
       <use x="63.623046875" xlink:href="#BitstreamVeraSans-Roman-30"/>
       <use x="127.24609375" xlink:href="#BitstreamVeraSans-Roman-30"/>
      </g>
     </g>
    </g>
    <g id="ytick_4">
     <g id="line2d_33">
      <path clip-path="url(#p891df068c3)" d="
M135 401.143
L972 401.143" style="fill:none;stroke:#000000;stroke-dasharray:1.000000,3.000000;stroke-dashoffset:0.0;stroke-width:0.5;"/>
     </g>
     <g id="line2d_34">
      <g>
       <use style="stroke:#000000;stroke-width:0.5;" x="135.0" xlink:href="#m728421d6d4" y="401.142857143"/>
      </g>
     </g>
     <g id="line2d_35">
      <g>
       <use style="stroke:#000000;stroke-width:0.5;" x="972.0" xlink:href="#mcb0005524f" y="401.142857143"/>
      </g>
     </g>
     <g id="text_12">
      <!-- 600 -->
      <g transform="translate(109.73 404.454107143)scale(0.12 -0.12)">
       <use xlink:href="#BitstreamVeraSans-Roman-36"/>
       <use x="63.623046875" xlink:href="#BitstreamVeraSans-Roman-30"/>
       <use x="127.24609375" xlink:href="#BitstreamVeraSans-Roman-30"/>
      </g>
     </g>
    </g>
    <g id="ytick_5">
     <g id="line2d_36">
      <path clip-path="url(#p891df068c3)" d="
M135 318.857
L972 318.857" style="fill:none;stroke:#000000;stroke-dasharray:1.000000,3.000000;stroke-dashoffset:0.0;stroke-width:0.5;"/>
     </g>
     <g id="line2d_37">
      <g>
       <use style="stroke:#000000;stroke-width:0.5;" x="135.0" xlink:href="#m728421d6d4" y="318.857142857"/>
      </g>
     </g>
     <g id="line2d_38">
      <g>
       <use style="stroke:#000000;stroke-width:0.5;" x="972.0" xlink:href="#mcb0005524f" y="318.857142857"/>
      </g>
     </g>
     <g id="text_13">
      <!-- 800 -->
      <defs>
       <path d="
M31.7812 34.625
Q24.75 34.625 20.7188 30.8594
Q16.7031 27.0938 16.7031 20.5156
Q16.7031 13.9219 20.7188 10.1562
Q24.75 6.39062 31.7812 6.39062
Q38.8125 6.39062 42.8594 10.1719
Q46.9219 13.9688 46.9219 20.5156
Q46.9219 27.0938 42.8906 30.8594
Q38.875 34.625 31.7812 34.625
M21.9219 38.8125
Q15.5781 40.375 12.0312 44.7188
Q8.5 49.0781 8.5 55.3281
Q8.5 64.0625 14.7188 69.1406
Q20.9531 74.2188 31.7812 74.2188
Q42.6719 74.2188 48.875 69.1406
Q55.0781 64.0625 55.0781 55.3281
Q55.0781 49.0781 51.5312 44.7188
Q48 40.375 41.7031 38.8125
Q48.8281 37.1562 52.7969 32.3125
Q56.7812 27.4844 56.7812 20.5156
Q56.7812 9.90625 50.3125 4.23438
Q43.8438 -1.42188 31.7812 -1.42188
Q19.7344 -1.42188 13.25 4.23438
Q6.78125 9.90625 6.78125 20.5156
Q6.78125 27.4844 10.7812 32.3125
Q14.7969 37.1562 21.9219 38.8125
M18.3125 54.3906
Q18.3125 48.7344 21.8438 45.5625
Q25.3906 42.3906 31.7812 42.3906
Q38.1406 42.3906 41.7188 45.5625
Q45.3125 48.7344 45.3125 54.3906
Q45.3125 60.0625 41.7188 63.2344
Q38.1406 66.4062 31.7812 66.4062
Q25.3906 66.4062 21.8438 63.2344
Q18.3125 60.0625 18.3125 54.3906" id="BitstreamVeraSans-Roman-38"/>
      </defs>
      <g transform="translate(109.705625 322.168392857)scale(0.12 -0.12)">
       <use xlink:href="#BitstreamVeraSans-Roman-38"/>
       <use x="63.623046875" xlink:href="#BitstreamVeraSans-Roman-30"/>
       <use x="127.24609375" xlink:href="#BitstreamVeraSans-Roman-30"/>
      </g>
     </g>
    </g>
    <g id="ytick_6">
     <g id="line2d_39">
      <path clip-path="url(#p891df068c3)" d="
M135 236.571
L972 236.571" style="fill:none;stroke:#000000;stroke-dasharray:1.000000,3.000000;stroke-dashoffset:0.0;stroke-width:0.5;"/>
     </g>
     <g id="line2d_40">
      <g>
       <use style="stroke:#000000;stroke-width:0.5;" x="135.0" xlink:href="#m728421d6d4" y="236.571428571"/>
      </g>
     </g>
     <g id="line2d_41">
      <g>
       <use style="stroke:#000000;stroke-width:0.5;" x="972.0" xlink:href="#mcb0005524f" y="236.571428571"/>
      </g>
     </g>
     <g id="text_14">
      <!-- 1000 -->
      <g transform="translate(102.575 239.882678571)scale(0.12 -0.12)">
       <use xlink:href="#BitstreamVeraSans-Roman-31"/>
       <use x="63.623046875" xlink:href="#BitstreamVeraSans-Roman-30"/>
       <use x="127.24609375" xlink:href="#BitstreamVeraSans-Roman-30"/>
       <use x="190.869140625" xlink:href="#BitstreamVeraSans-Roman-30"/>
      </g>
     </g>
    </g>
    <g id="ytick_7">
     <g id="line2d_42">
      <path clip-path="url(#p891df068c3)" d="
M135 154.286
L972 154.286" style="fill:none;stroke:#000000;stroke-dasharray:1.000000,3.000000;stroke-dashoffset:0.0;stroke-width:0.5;"/>
     </g>
     <g id="line2d_43">
      <g>
       <use style="stroke:#000000;stroke-width:0.5;" x="135.0" xlink:href="#m728421d6d4" y="154.285714286"/>
      </g>
     </g>
     <g id="line2d_44">
      <g>
       <use style="stroke:#000000;stroke-width:0.5;" x="972.0" xlink:href="#mcb0005524f" y="154.285714286"/>
      </g>
     </g>
     <g id="text_15">
      <!-- 1200 -->
      <g transform="translate(102.575 157.596964286)scale(0.12 -0.12)">
       <use xlink:href="#BitstreamVeraSans-Roman-31"/>
       <use x="63.623046875" xlink:href="#BitstreamVeraSans-Roman-32"/>
       <use x="127.24609375" xlink:href="#BitstreamVeraSans-Roman-30"/>
       <use x="190.869140625" xlink:href="#BitstreamVeraSans-Roman-30"/>
      </g>
     </g>
    </g>
    <g id="ytick_8">
     <g id="line2d_45">
      <path clip-path="url(#p891df068c3)" d="
M135 72
L972 72" style="fill:none;stroke:#000000;stroke-dasharray:1.000000,3.000000;stroke-dashoffset:0.0;stroke-width:0.5;"/>
     </g>
     <g id="line2d_46">
      <g>
       <use style="stroke:#000000;stroke-width:0.5;" x="135.0" xlink:href="#m728421d6d4" y="72.0"/>
      </g>
     </g>
     <g id="line2d_47">
      <g>
       <use style="stroke:#000000;stroke-width:0.5;" x="972.0" xlink:href="#mcb0005524f" y="72.0"/>
      </g>
     </g>
     <g id="text_16">
      <!-- 1400 -->
      <g transform="translate(102.575 75.31125)scale(0.12 -0.12)">
       <use xlink:href="#BitstreamVeraSans-Roman-31"/>
       <use x="63.623046875" xlink:href="#BitstreamVeraSans-Roman-34"/>
       <use x="127.24609375" xlink:href="#BitstreamVeraSans-Roman-30"/>
       <use x="190.869140625" xlink:href="#BitstreamVeraSans-Roman-30"/>
      </g>
     </g>
    </g>
    <g id="text_17">
     <!-- Price (Euro) -->
     <defs>
      <path d="
M30.6094 48.3906
Q23.3906 48.3906 19.1875 42.75
Q14.9844 37.1094 14.9844 27.2969
Q14.9844 17.4844 19.1562 11.8438
Q23.3438 6.20312 30.6094 6.20312
Q37.7969 6.20312 41.9844 11.8594
Q46.1875 17.5312 46.1875 27.2969
Q46.1875 37.0156 41.9844 42.7031
Q37.7969 48.3906 30.6094 48.3906
M30.6094 56
Q42.3281 56 49.0156 48.375
Q55.7188 40.7656 55.7188 27.2969
Q55.7188 13.875 49.0156 6.21875
Q42.3281 -1.42188 30.6094 -1.42188
Q18.8438 -1.42188 12.1719 6.21875
Q5.51562 13.875 5.51562 27.2969
Q5.51562 40.7656 12.1719 48.375
Q18.8438 56 30.6094 56" id="BitstreamVeraSans-Roman-6f"/>
      <path d="
M19.6719 64.7969
L19.6719 37.4062
L32.0781 37.4062
Q38.9688 37.4062 42.7188 40.9688
Q46.4844 44.5312 46.4844 51.125
Q46.4844 57.6719 42.7188 61.2344
Q38.9688 64.7969 32.0781 64.7969
z

M9.8125 72.9062
L32.0781 72.9062
Q44.3438 72.9062 50.6094 67.3594
Q56.8906 61.8125 56.8906 51.125
Q56.8906 40.3281 50.6094 34.8125
Q44.3438 29.2969 32.0781 29.2969
L19.6719 29.2969
L19.6719 0
L9.8125 0
z
" id="BitstreamVeraSans-Roman-50"/>
      <path d="
M9.8125 72.9062
L55.9062 72.9062
L55.9062 64.5938
L19.6719 64.5938
L19.6719 43.0156
L54.3906 43.0156
L54.3906 34.7188
L19.6719 34.7188
L19.6719 8.29688
L56.7812 8.29688
L56.7812 0
L9.8125 0
z
" id="BitstreamVeraSans-Roman-45"/>
      <path d="
M9.42188 54.6875
L18.4062 54.6875
L18.4062 0
L9.42188 0
z

M9.42188 75.9844
L18.4062 75.9844
L18.4062 64.5938
L9.42188 64.5938
z
" id="BitstreamVeraSans-Roman-69"/>
      <path d="
M8.5 21.5781
L8.5 54.6875
L17.4844 54.6875
L17.4844 21.9219
Q17.4844 14.1562 20.5 10.2656
Q23.5312 6.39062 29.5938 6.39062
Q36.8594 6.39062 41.0781 11.0312
Q45.3125 15.6719 45.3125 23.6875
L45.3125 54.6875
L54.2969 54.6875
L54.2969 0
L45.3125 0
L45.3125 8.40625
Q42.0469 3.42188 37.7188 1
Q33.4062 -1.42188 27.6875 -1.42188
Q18.2656 -1.42188 13.375 4.4375
Q8.5 10.2969 8.5 21.5781" id="BitstreamVeraSans-Roman-75"/>
      <path d="
M48.7812 52.5938
L48.7812 44.1875
Q44.9688 46.2969 41.1406 47.3438
Q37.3125 48.3906 33.4062 48.3906
Q24.6562 48.3906 19.8125 42.8438
Q14.9844 37.3125 14.9844 27.2969
Q14.9844 17.2812 19.8125 11.7344
Q24.6562 6.20312 33.4062 6.20312
Q37.3125 6.20312 41.1406 7.25
Q44.9688 8.29688 48.7812 10.4062
L48.7812 2.09375
Q45.0156 0.34375 40.9844 -0.53125
Q36.9688 -1.42188 32.4219 -1.42188
Q20.0625 -1.42188 12.7812 6.34375
Q5.51562 14.1094 5.51562 27.2969
Q5.51562 40.6719 12.8594 48.3281
Q20.2188 56 33.0156 56
Q37.1562 56 41.1094 55.1406
Q45.0625 54.2969 48.7812 52.5938" id="BitstreamVeraSans-Roman-63"/>
     </defs>
     <g transform="translate(95.079375 394.306875)rotate(-90.0)scale(0.12 -0.12)">
      <use xlink:href="#BitstreamVeraSans-Roman-50"/>
      <use x="58.552734375" xlink:href="#BitstreamVeraSans-Roman-72"/>
      <use x="99.666015625" xlink:href="#BitstreamVeraSans-Roman-69"/>
      <use x="127.44921875" xlink:href="#BitstreamVeraSans-Roman-63"/>
      <use x="182.4296875" xlink:href="#BitstreamVeraSans-Roman-65"/>
      <use x="243.953125" xlink:href="#BitstreamVeraSans-Roman-20"/>
      <use x="275.740234375" xlink:href="#BitstreamVeraSans-Roman-28"/>
      <use x="314.75390625" xlink:href="#BitstreamVeraSans-Roman-45"/>
      <use x="377.9375" xlink:href="#BitstreamVeraSans-Roman-75"/>
      <use x="441.31640625" xlink:href="#BitstreamVeraSans-Roman-72"/>
      <use x="480.1796875" xlink:href="#BitstreamVeraSans-Roman-6f"/>
      <use x="541.361328125" xlink:href="#BitstreamVeraSans-Roman-29"/>
     </g>
    </g>
   </g>
   <g id="patch_3">
    <path d="
M135 72
L972 72" style="fill:none;stroke:#000000;"/>
   </g>
   <g id="patch_4">
    <path d="
M972 648
L972 72" style="fill:none;stroke:#000000;"/>
   </g>
   <g id="patch_5">
    <path d="
M135 648
L972 648" style="fill:none;stroke:#000000;"/>
   </g>
   <g id="patch_6">
    <path d="
M135 648
L135 72" style="fill:none;stroke:#000000;"/>
   </g>
   <g id="legend_1">
    <g id="patch_7">
     <path d="
M816.363 125.793
L964.8 125.793
L964.8 79.2
L816.363 79.2
L816.363 125.793
z
" style="fill:#ffffff;stroke:#000000;"/>
    </g>
    <g id="line2d_48">
     <path d="
M826.443 90.8618
L846.603 90.8618" style="fill:none;stroke:#0000ff;stroke-linecap:square;stroke-width:2;"/>
    </g>
    <g id="line2d_49"/>
    <g id="text_18">
     <!-- Bitcoin prices -->
     <defs>
      <path d="
M54.8906 33.0156
L54.8906 0
L45.9062 0
L45.9062 32.7188
Q45.9062 40.4844 42.875 44.3281
Q39.8438 48.1875 33.7969 48.1875
Q26.5156 48.1875 22.3125 43.5469
Q18.1094 38.9219 18.1094 30.9062
L18.1094 0
L9.07812 0
L9.07812 54.6875
L18.1094 54.6875
L18.1094 46.1875
Q21.3438 51.125 25.7031 53.5625
Q30.0781 56 35.7969 56
Q45.2188 56 50.0469 50.1719
Q54.8906 44.3438 54.8906 33.0156" id="BitstreamVeraSans-Roman-6e"/>
      <path d="
M19.6719 34.8125
L19.6719 8.10938
L35.5 8.10938
Q43.4531 8.10938 47.2812 11.4062
Q51.125 14.7031 51.125 21.4844
Q51.125 28.3281 47.2812 31.5625
Q43.4531 34.8125 35.5 34.8125
z

M19.6719 64.7969
L19.6719 42.8281
L34.2812 42.8281
Q41.5 42.8281 45.0312 45.5312
Q48.5781 48.25 48.5781 53.8125
Q48.5781 59.3281 45.0312 62.0625
Q41.5 64.7969 34.2812 64.7969
z

M9.8125 72.9062
L35.0156 72.9062
Q46.2969 72.9062 52.3906 68.2188
Q58.5 63.5312 58.5 54.8906
Q58.5 48.1875 55.375 44.2344
Q52.25 40.2812 46.1875 39.3125
Q53.4688 37.75 57.5 32.7812
Q61.5312 27.8281 61.5312 20.4062
Q61.5312 10.6406 54.8906 5.3125
Q48.25 0 35.9844 0
L9.8125 0
z
" id="BitstreamVeraSans-Roman-42"/>
      <path d="
M18.1094 8.20312
L18.1094 -20.7969
L9.07812 -20.7969
L9.07812 54.6875
L18.1094 54.6875
L18.1094 46.3906
Q20.9531 51.2656 25.2656 53.625
Q29.5938 56 35.5938 56
Q45.5625 56 51.7812 48.0938
Q58.0156 40.1875 58.0156 27.2969
Q58.0156 14.4062 51.7812 6.48438
Q45.5625 -1.42188 35.5938 -1.42188
Q29.5938 -1.42188 25.2656 0.953125
Q20.9531 3.32812 18.1094 8.20312
M48.6875 27.2969
Q48.6875 37.2031 44.6094 42.8438
Q40.5312 48.4844 33.4062 48.4844
Q26.2656 48.4844 22.1875 42.8438
Q18.1094 37.2031 18.1094 27.2969
Q18.1094 17.3906 22.1875 11.75
Q26.2656 6.10938 33.4062 6.10938
Q40.5312 6.10938 44.6094 11.75
Q48.6875 17.3906 48.6875 27.2969" id="BitstreamVeraSans-Roman-70"/>
      <path d="
M44.2812 53.0781
L44.2812 44.5781
Q40.4844 46.5312 36.375 47.5
Q32.2812 48.4844 27.875 48.4844
Q21.1875 48.4844 17.8438 46.4375
Q14.5 44.3906 14.5 40.2812
Q14.5 37.1562 16.8906 35.375
Q19.2812 33.5938 26.5156 31.9844
L29.5938 31.2969
Q39.1562 29.25 43.1875 25.5156
Q47.2188 21.7812 47.2188 15.0938
Q47.2188 7.46875 41.1875 3.01562
Q35.1562 -1.42188 24.6094 -1.42188
Q20.2188 -1.42188 15.4531 -0.5625
Q10.6875 0.296875 5.42188 2
L5.42188 11.2812
Q10.4062 8.6875 15.2344 7.39062
Q20.0625 6.10938 24.8125 6.10938
Q31.1562 6.10938 34.5625 8.28125
Q37.9844 10.4531 37.9844 14.4062
Q37.9844 18.0625 35.5156 20.0156
Q33.0625 21.9688 24.7031 23.7812
L21.5781 24.5156
Q13.2344 26.2656 9.51562 29.9062
Q5.8125 33.5469 5.8125 39.8906
Q5.8125 47.6094 11.2812 51.7969
Q16.75 56 26.8125 56
Q31.7812 56 36.1719 55.2656
Q40.5781 54.5469 44.2812 53.0781" id="BitstreamVeraSans-Roman-73"/>
     </defs>
     <g transform="translate(862.443 95.90175)scale(0.144 -0.144)">
      <use xlink:href="#BitstreamVeraSans-Roman-42"/>
      <use x="68.603515625" xlink:href="#BitstreamVeraSans-Roman-69"/>
      <use x="96.38671875" xlink:href="#BitstreamVeraSans-Roman-74"/>
      <use x="135.595703125" xlink:href="#BitstreamVeraSans-Roman-63"/>
      <use x="190.576171875" xlink:href="#BitstreamVeraSans-Roman-6f"/>
      <use x="251.7578125" xlink:href="#BitstreamVeraSans-Roman-69"/>
      <use x="279.541015625" xlink:href="#BitstreamVeraSans-Roman-6e"/>
      <use x="342.919921875" xlink:href="#BitstreamVeraSans-Roman-20"/>
      <use x="374.70703125" xlink:href="#BitstreamVeraSans-Roman-70"/>
      <use x="438.18359375" xlink:href="#BitstreamVeraSans-Roman-72"/>
      <use x="479.296875" xlink:href="#BitstreamVeraSans-Roman-69"/>
      <use x="507.080078125" xlink:href="#BitstreamVeraSans-Roman-63"/>
      <use x="562.060546875" xlink:href="#BitstreamVeraSans-Roman-65"/>
      <use x="623.583984375" xlink:href="#BitstreamVeraSans-Roman-73"/>
     </g>
    </g>
    <g id="line2d_50">
     <path d="
M826.443 111.998
L846.603 111.998" style="fill:none;stroke:#008000;stroke-linecap:square;stroke-width:2;"/>
    </g>
    <g id="line2d_51"/>
    <g id="text_19">
     <!-- Gold prices -->
     <defs>
      <path d="
M59.5156 10.4062
L59.5156 29.9844
L43.4062 29.9844
L43.4062 38.0938
L69.2812 38.0938
L69.2812 6.78125
Q63.5781 2.73438 56.6875 0.65625
Q49.8125 -1.42188 42 -1.42188
Q24.9062 -1.42188 15.25 8.5625
Q5.60938 18.5625 5.60938 36.375
Q5.60938 54.25 15.25 64.2344
Q24.9062 74.2188 42 74.2188
Q49.125 74.2188 55.5469 72.4531
Q61.9688 70.7031 67.3906 67.2812
L67.3906 56.7812
Q61.9219 61.4219 55.7656 63.7656
Q49.6094 66.1094 42.8281 66.1094
Q29.4375 66.1094 22.7188 58.6406
Q16.0156 51.1719 16.0156 36.375
Q16.0156 21.625 22.7188 14.1562
Q29.4375 6.6875 42.8281 6.6875
Q48.0469 6.6875 52.1406 7.59375
Q56.25 8.5 59.5156 10.4062" id="BitstreamVeraSans-Roman-47"/>
      <path d="
M45.4062 46.3906
L45.4062 75.9844
L54.3906 75.9844
L54.3906 0
L45.4062 0
L45.4062 8.20312
Q42.5781 3.32812 38.25 0.953125
Q33.9375 -1.42188 27.875 -1.42188
Q17.9688 -1.42188 11.7344 6.48438
Q5.51562 14.4062 5.51562 27.2969
Q5.51562 40.1875 11.7344 48.0938
Q17.9688 56 27.875 56
Q33.9375 56 38.25 53.625
Q42.5781 51.2656 45.4062 46.3906
M14.7969 27.2969
Q14.7969 17.3906 18.875 11.75
Q22.9531 6.10938 30.0781 6.10938
Q37.2031 6.10938 41.2969 11.75
Q45.4062 17.3906 45.4062 27.2969
Q45.4062 37.2031 41.2969 42.8438
Q37.2031 48.4844 30.0781 48.4844
Q22.9531 48.4844 18.875 42.8438
Q14.7969 37.2031 14.7969 27.2969" id="BitstreamVeraSans-Roman-64"/>
      <path d="
M9.42188 75.9844
L18.4062 75.9844
L18.4062 0
L9.42188 0
z
" id="BitstreamVeraSans-Roman-6c"/>
     </defs>
     <g transform="translate(862.443 117.03825)scale(0.144 -0.144)">
      <use xlink:href="#BitstreamVeraSans-Roman-47"/>
      <use x="77.490234375" xlink:href="#BitstreamVeraSans-Roman-6f"/>
      <use x="138.671875" xlink:href="#BitstreamVeraSans-Roman-6c"/>
      <use x="166.455078125" xlink:href="#BitstreamVeraSans-Roman-64"/>
      <use x="229.931640625" xlink:href="#BitstreamVeraSans-Roman-20"/>
      <use x="261.71875" xlink:href="#BitstreamVeraSans-Roman-70"/>
      <use x="325.1953125" xlink:href="#BitstreamVeraSans-Roman-72"/>
      <use x="366.30859375" xlink:href="#BitstreamVeraSans-Roman-69"/>
      <use x="394.091796875" xlink:href="#BitstreamVeraSans-Roman-63"/>
      <use x="449.072265625" xlink:href="#BitstreamVeraSans-Roman-65"/>
      <use x="510.595703125" xlink:href="#BitstreamVeraSans-Roman-73"/>
     </g>
    </g>
   </g>
  </g>
 </g>
 <defs>
  <clipPath id="p891df068c3">
   <rect height="576.0" width="837.0" x="135.0" y="72.0"/>
  </clipPath>
 </defs>
</svg>
